<svg width="204" height="41" viewBox="0 0 204 41" fill="none" xmlns="http://www.w3.org/2000/svg">
<g clip-path="url(#clip0)">
<path d="M38.7433 14.8141C37.2616 13.5708 35.0446 13.7654 33.8036 15.2443L30.468 19.1914V7.74577C30.468 6.78647 30.0691 5.85749 29.3737 5.19694L24.9223 0.968428C24.2661 0.345068 23.4062 0.00170898 22.5012 0.00170898H3.51555C1.57711 0.00170898 0 1.57882 0 3.51726V36.4853C0 38.4237 1.57711 40.0008 3.51555 40.0008H26.9526C28.891 40.0008 30.4681 38.4237 30.4681 36.4853V30.0821C30.6121 29.9115 39.1497 19.7987 39.1766 19.7669C40.4255 18.2785 40.2319 16.0632 38.7433 14.8141ZM23.437 2.78999C28.1255 7.24374 27.7926 6.91819 27.8805 7.03288H23.437V2.78999ZM28.1244 36.4853C28.1244 37.1315 27.5987 37.6572 26.9525 37.6572H3.51555C2.86937 37.6572 2.34367 37.1315 2.34367 36.4853V3.51726C2.34367 2.87108 2.86937 2.34538 3.51555 2.34538H21.0933V8.2046C21.0933 8.85179 21.618 9.37647 22.2652 9.37647H28.1244V21.9647C27.621 22.5603 23.5792 27.343 23.1423 27.86C22.7934 28.2759 22.5422 28.7749 22.4161 29.303L21.327 33.862C21.224 34.2937 21.3736 34.7467 21.7136 35.032C22.0539 35.3176 22.526 35.3858 22.9329 35.2095L27.2337 33.3453C27.5566 33.2053 27.8577 33.0151 28.1244 32.7866V36.4853V36.4853ZM25.3371 28.894L27.1323 30.4003L26.733 30.8731C26.6169 31.0117 26.4676 31.123 26.3016 31.195L24.1512 32.1271L24.6959 29.8476C24.7379 29.6716 24.8216 29.5052 24.9352 29.3698L25.3371 28.894ZM28.6441 28.6094L26.8498 27.1039C27.0318 26.8885 32.9199 19.9208 33.3271 19.4391L35.1177 20.9415L28.6441 28.6094ZM37.3835 18.2577L36.6297 19.1507L34.84 17.649L35.5964 16.7539C36.0096 16.2615 36.7456 16.1973 37.2368 16.6094C37.7377 17.0297 37.793 17.7698 37.3835 18.2577Z" fill="black"/>
<path d="M17.5777 7.03149H5.85922C5.21203 7.03149 4.68735 7.55618 4.68735 8.20337C4.68735 8.85056 5.21203 9.37524 5.85922 9.37524H17.5777C18.2249 9.37524 18.7496 8.85056 18.7496 8.20337C18.7496 7.55618 18.2249 7.03149 17.5777 7.03149Z" fill="black"/>
<path d="M24.6088 14.1407H5.85922C5.21204 14.1407 4.68735 14.6654 4.68735 15.3126C4.68735 15.9598 5.21204 16.4845 5.85922 16.4845H24.6088C25.256 16.4845 25.7807 15.9598 25.7807 15.3126C25.7807 14.6654 25.256 14.1407 24.6088 14.1407Z" fill="black"/>
<path d="M24.6088 21.1719H5.85922C5.21204 21.1719 4.68735 21.6966 4.68735 22.3438C4.68735 22.9909 5.21204 23.5156 5.85922 23.5156H24.6088C25.256 23.5156 25.7807 22.9909 25.7807 22.3438C25.7807 21.6965 25.256 21.1719 24.6088 21.1719Z" fill="black"/>
<path d="M17.5777 28.203H5.85922C5.21203 28.203 4.68735 28.7277 4.68735 29.3749C4.68735 30.0221 5.21203 30.5468 5.85922 30.5468H17.5777C18.2249 30.5468 18.7496 30.0221 18.7496 29.3749C18.7496 28.7277 18.2249 28.203 17.5777 28.203Z" fill="black"/>
</g>
<path d="M74.4592 32.3076C73.8553 32.1367 73.5534 31.8006 73.5534 31.2993L74.0319 12.7227H73.7927L65.6066 29.7612C65.1167 30.6385 64.4217 31.5785 63.5217 32.5811C62.6216 33.5837 61.5848 34.478 60.4113 35.2642C59.2378 36.0503 58.201 36.4434 57.301 36.4434C56.7655 36.4434 56.4977 35.6629 56.4977 34.1021C56.4977 33.4071 57.0104 32.8545 58.0358 32.4443C59.2435 31.9772 60.2404 31.5671 61.0266 31.2139C62.576 30.5189 63.6926 29.5675 64.3762 28.3599C65.299 26.366 66.9226 22.931 69.2468 18.0547C71.5824 13.1784 73.1433 9.90283 73.9294 8.22803C74.3965 7.37354 75.0801 6.67855 75.9802 6.14307C76.8916 5.59619 77.843 5.32275 78.8342 5.32275C78.8342 5.33415 78.9025 5.37402 79.0393 5.44238C78.6405 8.47298 78.3386 11.9935 78.1335 16.0039C77.9398 20.0029 77.8088 22.5721 77.7404 23.7114H77.9968C78.2019 23.2671 78.5323 22.6177 78.988 21.7632C80.9704 17.9806 83.3687 13.2354 86.1828 7.52734L86.1486 7.56152C86.4562 7.06022 87.2025 6.51904 88.3874 5.93799C89.5837 5.34554 90.5065 5.03792 91.156 5.01514L91.2927 5.0835C89.7318 13.1841 88.7349 18.6813 88.3019 21.5752C87.869 24.4577 87.6525 26.5142 87.6525 27.7446C87.6525 28.9751 87.9203 29.5903 88.4558 29.5903C89.2761 29.5903 91.4123 27.8984 94.8644 24.5146V26.4629C90.4211 30.7809 87.2936 32.9399 85.4821 32.9399C84.1947 32.9399 83.551 31.7493 83.551 29.3682C83.551 27.6364 83.7219 25.7337 84.0637 23.6602C84.5536 20.7093 84.958 18.3452 85.277 16.5679C85.5961 14.7905 85.841 13.486 86.0119 12.6543C86.1942 11.8226 86.2853 11.3327 86.2853 11.1846C86.2853 11.0365 86.217 10.9624 86.0803 10.9624C85.9436 10.9624 85.8524 11.0308 85.8068 11.1675C78.8 24.9647 75.0174 32.0114 74.4592 32.3076ZM102.194 28.6675C99.5394 31.2196 97.3006 32.4956 95.4777 32.4956C94.7713 32.4956 94.2587 32.2222 93.9396 31.6753C93.632 31.1284 93.4782 30.422 93.4782 29.5562C93.4782 28.1092 94.5036 24.4691 96.5544 18.6357C96.6 18.3509 97.5228 18.2085 99.3229 18.2085H99.9211C99.9211 18.2313 99.6875 18.9775 99.2204 20.4473C97.819 24.8564 97.1184 27.4712 97.1184 28.2915C97.1184 29.1118 97.5 29.522 98.2634 29.522C98.9128 29.522 99.716 29.2428 100.673 28.6846C101.641 28.1263 102.205 27.682 102.365 27.3516L104.228 20.2422C104.478 19.2738 104.82 18.6813 105.253 18.4648C105.584 18.2939 106.113 18.2085 106.842 18.2085H108.005C107.743 18.9491 107.378 20.1681 106.911 21.8657C106.455 23.5633 106.13 24.7653 105.937 25.4717C105.515 27.0098 105.225 28.0978 105.065 28.7358L104.928 29.1973C107.526 27.0326 109.332 25.4603 110.346 24.4805V26.3945L104.638 31.5386V31.6069C104.376 33.0539 103.96 34.3527 103.39 35.5034C102.832 36.6541 102.2 37.5713 101.493 38.2549C100.046 39.6562 98.5653 40.3569 97.05 40.3569C96.2639 40.3569 95.529 40.1063 94.8454 39.605C94.1618 39.1037 93.82 38.5112 93.82 37.8276C93.82 37.144 94.0479 36.563 94.5036 36.0845C94.9707 35.6174 95.6315 35.1445 96.486 34.666L101.63 31.4019L102.194 28.6675ZM101.425 33.5039L98.2634 35.5034C97.8874 35.7313 97.5855 35.925 97.3576 36.0845C97.1411 36.2554 96.9247 36.4946 96.7082 36.8022C96.4917 37.1099 96.3835 37.4346 96.3835 37.7764C96.3835 38.7106 96.805 39.1777 97.6481 39.1777C98.6621 39.1777 99.4824 38.6593 100.109 37.6226C100.736 36.5858 101.174 35.2129 101.425 33.5039ZM131.773 9.1167L131.004 9.08252C129.682 9.08252 128.377 9.24772 127.09 9.57812C125.814 9.90853 124.709 10.3358 123.775 10.8599C122.84 11.3726 122.083 11.9593 121.502 12.6201C120.932 13.2695 120.647 13.9076 120.647 14.5342C120.647 15.9242 121.559 17.0236 123.382 17.8325C123.382 18.311 123.325 18.875 123.211 19.5244C123.097 20.1624 122.988 20.5498 122.886 20.6865C121.074 19.946 119.719 19.0459 118.819 17.9863C117.93 16.9268 117.486 15.8102 117.486 14.6367C117.486 12.5062 118.642 10.6605 120.955 9.09961C123.268 7.52734 126.384 6.57601 130.303 6.24561C132.103 6.12028 133.892 6.05762 135.669 6.05762C137.446 6.05762 138.854 6.06331 139.89 6.07471C140.927 6.0861 141.696 6.0918 142.197 6.0918L139.788 9.69775C138.717 9.69775 137.498 9.6237 136.131 9.47559C134.763 9.31608 133.823 9.21924 133.311 9.18506C133.071 10.4383 132.758 12.153 132.371 14.3291C131.983 16.5052 131.738 17.8667 131.636 18.4136C132.604 18.2996 133.596 18.2427 134.61 18.2427C135.635 18.2427 136.814 18.2769 138.147 18.3452C138.569 18.3452 138.779 18.5446 138.779 18.9434C138.779 19.3421 138.597 19.7694 138.233 20.2251C137.879 20.6808 137.486 20.9087 137.053 20.9087C134.376 20.9087 132.394 20.9657 131.106 21.0796C130.274 25.1128 129.34 28.1149 128.303 30.0859C127.403 31.7949 126.395 33.0254 125.279 33.7773C123.98 34.6432 122.459 35.0762 120.716 35.0762C118.585 35.0762 117.144 34.2103 116.392 32.4785C116.198 32.0342 116.101 31.5955 116.101 31.1626C116.101 29.3853 117.315 28.4966 119.741 28.4966C119.616 29.1802 119.553 29.9378 119.553 30.7695C119.553 31.5898 119.69 32.2222 119.964 32.6665C120.237 33.1108 120.693 33.3444 121.331 33.3672C121.969 33.39 122.561 33.0824 123.108 32.4443C123.655 31.8063 124.168 30.8892 124.646 29.6929C125.455 27.6649 126.258 25.016 127.056 21.7461L125.586 22.1733C125.529 22.1733 125.427 22.179 125.279 22.1904C125.13 22.1904 124.977 22.1278 124.817 22.0024C124.669 21.8771 124.595 21.672 124.595 21.3872C124.595 21.1024 124.646 20.8517 124.749 20.6353C124.897 20.339 125.199 20.0941 125.654 19.9004C126.11 19.6953 126.771 19.4561 127.637 19.1826C127.808 18.4762 127.956 17.8325 128.081 17.2515C128.218 16.659 128.338 16.1406 128.44 15.6963C128.543 15.252 128.628 14.8988 128.696 14.6367C128.765 14.3747 128.839 14.0671 128.919 13.7139C129.01 13.3607 129.09 13.0758 129.158 12.8594C129.226 12.6315 129.3 12.3979 129.38 12.1587C129.54 11.6916 129.682 11.3498 129.807 11.1333C130.411 10.2332 131.066 9.56104 131.773 9.1167ZM150.279 17.8667C150.279 18.1971 150.154 18.4421 149.903 18.6016C147.636 18.6016 145.904 19.251 144.708 20.5498C143.591 21.7803 143.033 23.1646 143.033 24.7026C143.033 26.2293 143.369 27.4484 144.041 28.3599C144.725 29.2713 145.557 29.7271 146.536 29.7271C147.516 29.7271 148.462 29.2144 149.373 28.189C148.519 27.6535 147.858 26.9471 147.391 26.0698C146.935 25.1925 146.707 24.3039 146.707 23.4038C146.707 22.4924 146.981 21.7575 147.528 21.1992C148.074 20.6296 148.866 20.3447 149.903 20.3447C150.94 20.3447 151.692 20.6239 152.159 21.1821C152.637 21.7404 152.877 22.424 152.877 23.2329C152.877 24.8963 152.347 26.3717 151.287 27.6592C151.572 27.7731 151.817 27.8301 152.022 27.8301C152.227 27.8301 152.438 27.7845 152.654 27.6934C152.882 27.5908 153.139 27.4199 153.424 27.1807C153.708 26.93 153.959 26.6965 154.175 26.48C154.392 26.2635 154.705 25.9388 155.115 25.5059C155.526 25.0729 155.873 24.7197 156.158 24.4463V26.3262C155.212 27.3288 154.443 28.0409 153.851 28.4624C153.27 28.884 152.694 29.0947 152.125 29.0947C151.566 29.0947 151.054 29.015 150.587 28.8555C149.709 29.9264 148.667 30.8037 147.459 31.4873C146.263 32.1595 145.021 32.4956 143.734 32.4956C141.888 32.4956 140.572 31.624 139.786 29.8809C139.341 28.901 139.119 27.8016 139.119 26.5825C139.119 23.814 140.099 21.6322 142.059 20.0371C144.03 18.4421 146.645 17.6445 149.903 17.6445C150.131 17.6445 150.256 17.7186 150.279 17.8667ZM151.253 23.5576C151.253 22.5094 150.786 21.9854 149.852 21.9854C148.929 21.9854 148.467 22.5379 148.467 23.6431C148.467 24.2241 148.621 24.828 148.929 25.4546C149.248 26.0698 149.675 26.5597 150.211 26.9243C150.439 26.5483 150.666 26.0299 150.894 25.3691C151.133 24.6969 151.253 24.0931 151.253 23.5576ZM163.265 19.5415L165.316 19.3022C165.647 19.3022 165.812 19.382 165.812 19.5415C165.812 19.701 165.419 20.5954 164.633 22.2246C162.832 25.916 161.932 28.1377 161.932 28.8896C161.932 28.901 161.927 28.9466 161.915 29.0264C161.915 29.0947 161.915 29.1517 161.915 29.1973C161.927 29.2314 161.938 29.2827 161.949 29.3511C161.961 29.4194 161.978 29.4707 162.001 29.5049C162.08 29.6074 162.194 29.6587 162.342 29.6587C162.639 29.6587 163.544 28.9865 165.06 27.6421C166.586 26.2863 167.629 25.2324 168.187 24.4805V26.3945C164.12 30.4619 161.38 32.4956 159.967 32.4956C159.466 32.4956 159.09 32.2734 158.839 31.8291C158.588 31.3734 158.463 30.929 158.463 30.4961C158.463 30.0632 158.549 29.5675 158.719 29.0093C158.89 28.4396 159.118 27.7902 159.403 27.061C159.699 26.3319 159.973 25.6711 160.223 25.0786C160.474 24.4862 160.747 23.8481 161.044 23.1646C161.351 22.4696 161.528 22.0651 161.573 21.9512C160.924 22.612 160.166 23.3354 159.3 24.1216C158.446 24.9077 157.643 25.6882 156.891 26.4629V24.5488L160.36 20.9429C158.97 20.6011 158.07 20.0656 157.66 19.3364C157.569 19.1883 157.523 19.0573 157.523 18.9434C157.523 18.1458 157.825 17.4451 158.429 16.8413C159.033 16.2375 159.836 15.9355 160.839 15.9355C161.351 15.9355 161.608 16.2375 161.608 16.8413C161.608 17.1945 161.505 17.5819 161.3 18.0034C161.095 18.4136 160.85 18.6927 160.565 18.8408C161.089 19.3079 161.989 19.5415 163.265 19.5415ZM184.352 32.5298C183.68 32.5298 183.344 32.0285 183.344 31.0259C183.344 29.6929 183.737 28.1548 184.523 26.4116C185.321 24.6571 185.719 23.2044 185.719 22.0537C185.719 21.7461 185.611 21.4613 185.395 21.1992C185.178 20.9372 184.848 20.8062 184.404 20.8062C183.971 20.8062 183.452 21.1252 182.848 21.7632C182.244 22.4012 181.703 23.1646 181.225 24.0532C180.746 24.9305 180.273 25.9274 179.806 27.0439C179.089 28.8099 178.513 30.4619 178.08 32H174.799C174.799 30.5075 175.266 28.2402 176.2 25.1982C176.759 23.3867 177.038 22.2816 177.038 21.8828C177.038 21.4727 176.958 21.1821 176.799 21.0112C176.639 20.8289 176.48 20.7378 176.32 20.7378C176.161 20.7378 176.012 20.7606 175.876 20.8062C175.135 21.1479 174.4 21.8201 173.671 22.8228C172.953 23.814 172.332 24.9248 171.808 26.1553C170.828 28.4339 170.133 30.3822 169.723 32H166.459C166.55 30.5303 166.943 28.2345 167.638 25.1128C168.345 21.9797 168.983 19.9574 169.552 19.0459C169.758 18.6813 170.099 18.4535 170.578 18.3623C171.068 18.2598 171.899 18.2085 173.073 18.2085C172.913 19.006 172.583 20.1624 172.082 21.6777C171.592 23.193 171.296 24.1273 171.193 24.4805C173.779 19.946 176.36 17.6787 178.935 17.6787C179.379 17.6787 179.71 17.9294 179.926 18.4307C180.142 18.9206 180.251 19.5586 180.251 20.3447C180.251 21.1195 179.949 22.498 179.345 24.4805C180.154 22.8968 181.242 21.3986 182.609 19.9858C183.293 19.2909 184.033 18.7269 184.831 18.2939C185.628 17.861 186.392 17.6445 187.121 17.6445C188.397 17.6445 189.035 18.5218 189.035 20.2764C189.035 21.8942 188.591 24.0133 187.702 26.6338C187.451 27.363 187.326 27.8472 187.326 28.0864C187.326 28.3143 187.377 28.4282 187.48 28.4282C187.594 28.4282 187.713 28.3997 187.839 28.3428C187.964 28.2744 188.112 28.1719 188.283 28.0352C188.465 27.887 188.642 27.7389 188.813 27.5908C188.984 27.4313 189.206 27.2205 189.479 26.9585C189.753 26.6851 189.998 26.4458 190.214 26.2407C190.431 26.0243 190.715 25.7394 191.069 25.3862L191.974 24.4805V26.3945C190.55 27.8643 189.063 29.2542 187.514 30.5645C185.964 31.8747 184.911 32.5298 184.352 32.5298ZM196.484 31.8804C196.097 32.0399 195.669 32.1823 195.202 32.3076C194.747 32.4329 194.285 32.4956 193.818 32.4956C193.362 32.4956 192.878 32.45 192.365 32.3589C191.864 32.2677 191.369 32.1196 190.879 31.9146C189.762 31.4588 189.204 30.6727 189.204 29.5562C189.204 29.1118 189.369 28.6048 189.699 28.0352C190.03 27.4655 190.389 26.9642 190.776 26.5312C191.175 26.0983 191.642 25.6027 192.177 25.0444C192.713 24.4862 193.078 24.0874 193.271 23.8481C192.964 23.0848 192.81 22.2531 192.81 21.353C192.81 20.02 193.22 18.9206 194.04 18.0547C194.861 17.1774 196.085 16.7388 197.715 16.7388C198.432 16.7388 198.791 16.9382 198.791 17.3369C198.791 18.0433 198.484 18.5959 197.868 18.9946C197.265 19.382 196.615 19.5757 195.92 19.5757C196.307 20.7492 196.963 21.8031 197.885 22.7373C198.227 23.1019 198.558 23.4494 198.877 23.7798C199.617 24.5317 199.987 25.1812 199.987 25.728C199.987 26.5711 199.589 27.5396 198.791 28.6333L203.867 24.4805V26.3604C203.73 26.4743 203.388 26.7705 202.841 27.249C202.306 27.7275 201.913 28.075 201.662 28.2915C201.423 28.4966 201.024 28.8213 200.466 29.2656C199.919 29.71 199.475 30.0518 199.133 30.291C198.803 30.5189 198.375 30.798 197.851 31.1284C197.327 31.4588 196.871 31.7095 196.484 31.8804ZM194.006 25.1812C193.915 25.2837 193.567 25.6084 192.964 26.1553C191.619 27.3516 190.947 28.2744 190.947 28.9238C190.947 29.5618 191.277 30.103 191.938 30.5474C192.599 30.9803 193.311 31.1968 194.074 31.1968C194.838 31.1968 195.453 31.0715 195.92 30.8208C196.387 30.5588 196.621 30.2284 196.621 29.8296C196.621 29.4308 196.57 29.0719 196.467 28.7529C196.364 28.4339 196.199 28.1035 195.971 27.7617C195.755 27.4085 195.561 27.1237 195.39 26.9072C195.231 26.6794 194.986 26.3717 194.655 25.9844C194.325 25.5856 194.109 25.3179 194.006 25.1812Z" fill="black"/>
<defs>
<clipPath id="clip0">
<rect width="40" height="40" fill="white"/>
</clipPath>
</defs>
</svg>
