<svg width="1000" height="150" viewBox="0 0 458 52" fill="none" xmlns="http://www.w3.org/2000/svg">
<g filter="url(#filter0_i)">
<path d="M31.884 18.852C30.9932 18.7035 30.4216 17.8729 30.334 16.9741C30.2079 15.6801 29.9206 14.386 29.472 13.092C28.872 11.292 27.816 9.792 26.304 8.592C24.816 7.392 22.752 6.792 20.112 6.792C16.224 6.792 13.272 8.484 11.256 11.868C9.24 15.228 8.232 20.16 8.232 26.664C8.232 32.712 9.312 37.392 11.472 40.704C13.632 43.992 16.62 45.636 20.436 45.636C22.644 45.636 24.816 45.168 26.952 44.232C28.2755 43.652 29.5991 42.9062 30.9226 41.9945C32.4275 40.9578 34.4647 40.7777 35.592 42.216V42.216V42.216C36.7297 43.6284 36.2325 45.6062 34.7868 46.7014C33.2299 47.8808 31.4223 48.9297 29.364 49.848C26.268 51.24 22.896 51.936 19.248 51.936C15.84 51.936 12.948 51.228 10.572 49.812C8.22 48.396 6.312 46.488 4.848 44.088C3.384 41.688 2.316 38.988 1.644 35.988C0.996001 32.964 0.672001 29.844 0.672001 26.628C0.672001 20.676 1.572 15.804 3.372 12.012C5.172 8.22 7.548 5.424 10.5 3.624C13.476 1.8 16.716 0.888 20.22 0.888C23.772 0.888 26.832 1.56 29.4 2.904C31.968 4.224 33.948 5.952 35.34 8.088C36.756 10.2 37.464 12.444 37.464 14.82C37.464 16.02 37.152 17.016 36.528 17.808C35.928 18.576 34.884 18.96 33.396 18.96C32.844 18.96 32.34 18.924 31.884 18.852V18.852Z" fill="#0275D8"/>
<path d="M67.0708 45.024C69.771 45.024 72.5405 47.6148 70.8748 49.74V49.74C70.1788 50.628 68.9788 51.072 67.2748 51.072H50.6068C49.3828 51.072 48.3868 50.7 47.6188 49.956C46.8748 49.188 46.5028 48.12 46.5028 46.752V12.184C46.5028 12.0047 46.574 11.8328 46.7008 11.706V11.706C46.8276 11.5792 46.9995 11.508 47.1788 11.508H49.6708C51.1348 11.508 52.1548 11.856 52.7308 12.552C53.3068 13.248 53.5948 14.388 53.5948 15.972V39.327C53.5948 42.5398 56.358 45.024 59.5708 45.024V45.024H67.0708Z" fill="#0275D8"/>
<path d="M75.5739 31.416C75.5739 27.384 76.2579 23.832 77.6259 20.76C79.0179 17.664 81.0579 15.24 83.7459 13.488C86.4579 11.712 89.7819 10.824 93.7179 10.824C97.7019 10.824 101.038 11.7 103.726 13.452C106.438 15.204 108.478 17.628 109.846 20.724C111.238 23.82 111.934 27.384 111.934 31.416C111.934 35.424 111.238 38.976 109.846 42.072C108.454 45.168 106.402 47.592 103.69 49.344C100.978 51.072 97.6539 51.936 93.7179 51.936C89.7579 51.936 86.4339 51.06 83.7459 49.308C81.0579 47.532 79.0179 45.096 77.6259 42C76.2579 38.904 75.5739 35.376 75.5739 31.416ZM82.9179 31.416C82.9179 33.072 83.0739 34.776 83.3859 36.528C83.6979 38.28 84.2379 39.912 85.0059 41.424C85.7739 42.912 86.8659 44.124 88.2819 45.06C89.6979 45.972 91.5099 46.428 93.7179 46.428C95.9499 46.428 97.7739 45.972 99.1899 45.06C100.606 44.124 101.698 42.912 102.466 41.424C103.234 39.912 103.762 38.28 104.05 36.528C104.362 34.776 104.518 33.072 104.518 31.416C104.518 29.736 104.362 28.02 104.05 26.268C103.762 24.492 103.234 22.86 102.466 21.372C101.698 19.86 100.606 18.648 99.1899 17.736C97.7739 16.8 95.9499 16.332 93.7179 16.332C91.5099 16.332 89.6979 16.8 88.2819 17.736C86.8659 18.648 85.7739 19.86 85.0059 21.372C84.2379 22.86 83.6979 24.492 83.3859 26.268C83.0739 28.02 82.9179 29.736 82.9179 31.416Z" fill="#0275D8"/>
<path d="M126.031 21.84C126.031 21.072 126.043 20.376 126.067 19.752C126.07 19.6578 126.073 19.5619 126.076 19.4642C126.109 18.4107 125.248 17.561 124.195 17.592V17.592C123.403 17.616 122.779 17.628 122.323 17.628H116.183C115.296 17.628 114.523 16.9985 114.439 16.116V16.116C114.391 15.612 114.367 15.156 114.367 14.748C114.367 14.316 114.391 13.836 114.439 13.308V13.308C114.521 12.4045 115.311 11.76 116.218 11.76H142.848C143.699 11.76 144.456 12.3213 144.571 13.164V13.164C144.643 13.668 144.679 14.1 144.679 14.46C144.679 15.492 144.403 16.284 143.851 16.836C143.323 17.364 142.327 17.628 140.863 17.628H136.759C136.327 17.628 135.703 17.616 134.887 17.592V17.592C133.873 17.5613 133.046 18.3784 133.075 19.3922C133.078 19.5149 133.082 19.6348 133.087 19.752C133.111 20.376 133.123 21.072 133.123 21.84V49.293C133.123 50.2879 132.423 51.1451 131.431 51.216V51.216C130.759 51.264 130.147 51.288 129.595 51.288C129.067 51.288 128.467 51.264 127.795 51.216V51.216C126.766 51.1425 126.031 50.2536 126.031 49.2218V21.84Z" fill="#0275D8"/>
<path d="M158.256 49.222C158.256 50.2516 157.519 51.1399 156.492 51.216V51.216C155.868 51.264 155.28 51.288 154.728 51.288C154.224 51.288 153.636 51.264 152.964 51.216V51.216C151.916 51.1412 151.164 50.2365 151.164 49.1862V13.5755C151.164 12.5136 151.903 11.5819 152.964 11.544V11.544C153.636 11.496 154.224 11.472 154.728 11.472C155.28 11.472 155.868 11.496 156.492 11.544V11.544C157.532 11.5825 158.256 12.4987 158.256 13.5397V23.46C158.256 24.276 158.244 24.996 158.22 25.62C158.217 25.7027 158.214 25.7866 158.211 25.8719C158.178 26.8855 159.006 27.6994 160.02 27.672V27.672C160.932 27.648 161.544 27.636 161.856 27.636H172.332C172.62 27.636 173.208 27.648 174.096 27.672V27.672C175.13 27.6992 175.974 26.8694 175.94 25.8359C175.937 25.763 175.935 25.691 175.932 25.62C175.908 24.996 175.896 24.276 175.896 23.46V13.4684C175.896 12.4668 176.587 11.5825 177.588 11.544V11.544C178.212 11.496 178.8 11.472 179.352 11.472C179.88 11.472 180.48 11.496 181.152 11.544V11.544C182.232 11.5826 182.988 12.5307 182.988 13.6111V49.1864C182.988 50.2347 182.233 51.1386 181.188 51.216V51.216C180.564 51.264 179.964 51.288 179.388 51.288C178.836 51.288 178.248 51.264 177.624 51.216V51.216C176.618 51.1386 175.896 50.2667 175.896 49.2578V37.788C175.896 36.948 175.908 36.216 175.932 35.592C175.935 35.5095 175.938 35.4256 175.941 35.3402C175.974 34.3066 175.13 33.4768 174.096 33.504V33.504C173.208 33.528 172.62 33.54 172.332 33.54H161.856C161.544 33.54 160.932 33.528 160.02 33.504V33.504C159.006 33.4766 158.178 34.2905 158.21 35.3042C158.213 35.402 158.216 35.498 158.22 35.592C158.244 36.216 158.256 36.948 158.256 37.788V49.222Z" fill="#0275D8"/>
<path d="M217.804 45.132C220.477 45.132 223.277 47.6941 221.6 49.776V49.776C220.904 50.616 219.74 51.036 218.108 51.036H199.424C198.176 51.036 197.18 50.664 196.436 49.92C195.692 49.152 195.32 48.108 195.32 46.788V12.436C195.32 12.2567 195.391 12.0848 195.518 11.958V11.958C195.645 11.8312 195.817 11.76 195.996 11.76H220.004C220.867 11.76 221.629 12.3736 221.672 13.236V13.236C221.696 13.716 221.708 14.16 221.708 14.568C221.708 14.952 221.66 15.42 221.564 15.972V15.972C221.432 16.9847 220.484 17.628 219.462 17.628H206.372C205.892 17.628 205.28 17.628 204.536 17.628C204.345 17.6218 204.153 17.6165 203.96 17.6119C203.026 17.5897 202.267 18.35 202.304 19.284V19.284C202.328 19.884 202.34 20.544 202.34 21.264V26.0516C202.34 27.253 203.335 28.212 204.536 28.212V28.212C205.28 28.212 205.892 28.212 206.372 28.212H216.383C217.311 28.212 218.176 28.7964 218.216 29.724V29.724C218.264 30.252 218.288 30.696 218.288 31.056C218.288 31.464 218.264 31.944 218.216 32.496V32.496C218.175 33.4022 217.325 33.972 216.418 33.972H206.372C205.892 33.972 205.28 33.972 204.536 33.972V33.972C203.324 33.9316 202.34 34.9194 202.34 36.1324V42.18C202.34 42.756 202.328 43.308 202.304 43.836V43.836C202.269 44.6123 202.93 45.2237 203.706 45.1876C203.862 45.1804 204.019 45.1738 204.176 45.168C204.848 45.144 205.64 45.132 206.552 45.132H217.804Z" fill="#0275D8"/>
<path d="M246.758 48.272C244.944 47.3017 243.931 45.1828 244.965 43.404V43.404V43.404C245.954 41.7692 248.086 41.7038 249.777 42.5935C251.097 43.2881 252.493 43.9062 253.965 44.448C256.509 45.384 259.005 45.852 261.453 45.852C264.477 45.852 266.829 45.204 268.509 43.908C270.213 42.612 271.065 40.92 271.065 38.832C271.065 37.032 270.453 35.472 269.229 34.152C268.029 32.808 266.373 31.68 264.261 30.768L255.549 27.132C252.525 25.86 250.125 24.228 248.349 22.236C246.573 20.244 245.685 17.736 245.685 14.712C245.685 12.144 246.357 9.816 247.701 7.728C249.069 5.64 250.965 3.984 253.389 2.76C255.813 1.512 258.621 0.888 261.813 0.888C264.765 0.888 267.537 1.272 270.129 2.04C271.478 2.43603 272.728 2.85121 273.879 3.28554C275.729 3.98338 276.923 5.89233 276.105 7.692V7.692V7.692C275.29 9.44391 273.113 9.66459 271.31 8.96999C270.264 8.5669 269.174 8.2009 268.041 7.872C265.833 7.2 263.817 6.864 261.993 6.864C259.233 6.864 257.049 7.548 255.441 8.916C253.833 10.26 253.029 11.928 253.029 13.92C253.029 15.6 253.605 16.956 254.757 17.988C255.933 19.02 257.421 19.92 259.221 20.688L267.789 24.252C270.813 25.5 273.357 27.228 275.421 29.436C277.509 31.62 278.553 34.344 278.553 37.608C278.553 40.344 277.917 42.792 276.645 44.952C275.373 47.112 273.441 48.816 270.849 50.064C268.257 51.312 264.993 51.936 261.057 51.936C258.081 51.936 255.069 51.456 252.021 50.496C250.142 49.8844 248.387 49.1431 246.758 48.272Z" fill="#0275D8"/>
<path d="M293.937 21.84C293.937 21.072 293.949 20.376 293.973 19.752C293.976 19.6578 293.98 19.5619 293.983 19.4642C294.015 18.4107 293.155 17.561 292.101 17.592V17.592C291.309 17.616 290.685 17.628 290.229 17.628H284.089C283.202 17.628 282.429 16.9985 282.345 16.116V16.116C282.297 15.612 282.273 15.156 282.273 14.748C282.273 14.316 282.297 13.836 282.345 13.308V13.308C282.427 12.4045 283.217 11.76 284.125 11.76H310.754C311.605 11.76 312.362 12.3213 312.477 13.164V13.164C312.549 13.668 312.585 14.1 312.585 14.46C312.585 15.492 312.309 16.284 311.757 16.836C311.229 17.364 310.233 17.628 308.769 17.628H304.665C304.233 17.628 303.609 17.616 302.793 17.592V17.592C301.779 17.5613 300.952 18.3784 300.981 19.3922C300.985 19.5149 300.989 19.6348 300.993 19.752C301.017 20.376 301.029 21.072 301.029 21.84V49.293C301.029 50.2879 300.329 51.1451 299.337 51.216V51.216C298.665 51.264 298.053 51.288 297.501 51.288C296.973 51.288 296.373 51.264 295.701 51.216V51.216C294.672 51.1425 293.937 50.2536 293.937 49.2219V21.84Z" fill="#0275D8"/>
<path d="M350.93 37.104C350.93 41.904 349.466 45.576 346.538 48.12C343.634 50.664 339.674 51.936 334.658 51.936C329.666 51.936 325.706 50.664 322.778 48.12C319.874 45.576 318.422 41.904 318.422 37.104V12.1176C318.422 11.957 318.482 11.8022 318.59 11.6833V11.6833C318.712 11.5487 318.886 11.472 319.068 11.472H321.482C322.922 11.472 323.954 11.844 324.578 12.588C325.202 13.308 325.514 14.46 325.514 16.044V37.068C325.514 40.02 326.282 42.288 327.818 43.872C329.354 45.456 331.634 46.248 334.658 46.248C337.73 46.248 340.022 45.456 341.534 43.872C343.046 42.288 343.802 40.02 343.802 37.068V13.5022C343.802 12.4933 344.524 11.6214 345.53 11.544V11.544C346.154 11.496 346.73 11.472 347.258 11.472C347.786 11.472 348.386 11.496 349.058 11.544V11.544C350.159 11.6199 350.93 12.5831 350.93 13.6865V37.104Z" fill="#0275D8"/>
<path d="M395.031 31.452C395.031 37.932 393.591 42.852 390.711 46.212C387.831 49.572 383.139 51.252 376.635 51.252C374.883 51.252 373.311 51.24 371.919 51.216C370.551 51.192 369.159 51.168 367.743 51.144C366.422 51.1212 364.905 51.0876 363.194 51.0432C363.018 51.0386 362.85 50.9665 362.725 50.8417V50.8417C362.596 50.7126 362.523 50.5374 362.523 50.3547V12.4108C362.523 12.2256 362.601 12.049 362.738 11.9244V11.9244C362.855 11.8183 363.006 11.7577 363.164 11.7537C364.91 11.7088 366.449 11.6749 367.779 11.652C369.171 11.604 370.551 11.568 371.919 11.544C373.311 11.52 374.883 11.508 376.635 11.508C383.115 11.508 387.795 13.236 390.675 16.692C393.579 20.148 395.031 25.068 395.031 31.452ZM387.687 31.452C387.687 29.796 387.555 28.128 387.291 26.448C387.027 24.768 386.511 23.232 385.743 21.84C384.975 20.424 383.859 19.296 382.395 18.456C380.931 17.616 378.999 17.196 376.599 17.196C375.255 17.196 374.043 17.184 372.963 17.16V17.16C371.095 17.1175 369.579 18.6392 369.579 20.5083V42.2878C369.579 44.1767 371.111 45.7149 372.999 45.672V45.672C374.055 45.648 375.255 45.636 376.599 45.636C378.999 45.636 380.931 45.216 382.395 44.376C383.859 43.512 384.975 42.384 385.743 40.992C386.511 39.6 387.027 38.076 387.291 36.42C387.555 34.74 387.687 33.084 387.687 31.452Z" fill="#0275D8"/>
<path d="M404.611 13.5382C404.611 12.5064 405.346 11.6175 406.375 11.544V11.544C407.071 11.496 407.671 11.472 408.175 11.472C408.727 11.472 409.315 11.496 409.939 11.544V11.544C410.964 11.6228 411.703 12.5102 411.703 13.5379V49.2221C411.703 50.2498 410.964 51.1372 409.939 51.216V51.216C409.315 51.264 408.727 51.288 408.175 51.288C407.671 51.288 407.071 51.264 406.375 51.216V51.216C405.346 51.1425 404.611 50.2536 404.611 49.2218V13.5382Z" fill="#0275D8"/>
<path d="M421.09 31.416C421.09 27.384 421.774 23.832 423.142 20.76C424.534 17.664 426.574 15.24 429.262 13.488C431.974 11.712 435.298 10.824 439.234 10.824C443.218 10.824 446.554 11.7 449.242 13.452C451.954 15.204 453.994 17.628 455.362 20.724C456.754 23.82 457.45 27.384 457.45 31.416C457.45 35.424 456.754 38.976 455.362 42.072C453.97 45.168 451.918 47.592 449.206 49.344C446.494 51.072 443.17 51.936 439.234 51.936C435.274 51.936 431.95 51.06 429.262 49.308C426.574 47.532 424.534 45.096 423.142 42C421.774 38.904 421.09 35.376 421.09 31.416ZM428.434 31.416C428.434 33.072 428.59 34.776 428.902 36.528C429.214 38.28 429.754 39.912 430.522 41.424C431.29 42.912 432.382 44.124 433.798 45.06C435.214 45.972 437.026 46.428 439.234 46.428C441.466 46.428 443.29 45.972 444.706 45.06C446.122 44.124 447.214 42.912 447.982 41.424C448.75 39.912 449.278 38.28 449.566 36.528C449.878 34.776 450.034 33.072 450.034 31.416C450.034 29.736 449.878 28.02 449.566 26.268C449.278 24.492 448.75 22.86 447.982 21.372C447.214 19.86 446.122 18.648 444.706 17.736C443.29 16.8 441.466 16.332 439.234 16.332C437.026 16.332 435.214 16.8 433.798 17.736C432.382 18.648 431.29 19.86 430.522 21.372C429.754 22.86 429.214 24.492 428.902 26.268C428.59 28.02 428.434 29.736 428.434 31.416Z" fill="#0275D8"/>
<path d="M31.884 18.852C30.9932 18.7035 30.4216 17.8729 30.334 16.9741C30.2079 15.6801 29.9206 14.386 29.472 13.092C28.872 11.292 27.816 9.792 26.304 8.592C24.816 7.392 22.752 6.792 20.112 6.792C16.224 6.792 13.272 8.484 11.256 11.868C9.24 15.228 8.232 20.16 8.232 26.664C8.232 32.712 9.312 37.392 11.472 40.704C13.632 43.992 16.62 45.636 20.436 45.636C22.644 45.636 24.816 45.168 26.952 44.232C28.2755 43.652 29.5991 42.9062 30.9226 41.9945C32.4275 40.9578 34.4647 40.7777 35.592 42.216V42.216V42.216C36.7297 43.6284 36.2325 45.6062 34.7868 46.7014C33.2299 47.8808 31.4223 48.9297 29.364 49.848C26.268 51.24 22.896 51.936 19.248 51.936C15.84 51.936 12.948 51.228 10.572 49.812C8.22 48.396 6.312 46.488 4.848 44.088C3.384 41.688 2.316 38.988 1.644 35.988C0.996001 32.964 0.672001 29.844 0.672001 26.628C0.672001 20.676 1.572 15.804 3.372 12.012C5.172 8.22 7.548 5.424 10.5 3.624C13.476 1.8 16.716 0.888 20.22 0.888C23.772 0.888 26.832 1.56 29.4 2.904C31.968 4.224 33.948 5.952 35.34 8.088C36.756 10.2 37.464 12.444 37.464 14.82C37.464 16.02 37.152 17.016 36.528 17.808C35.928 18.576 34.884 18.96 33.396 18.96C32.844 18.96 32.34 18.924 31.884 18.852V18.852Z" stroke="#0063B9"/>
<path d="M67.0708 45.024C69.771 45.024 72.5405 47.6148 70.8748 49.74V49.74C70.1788 50.628 68.9788 51.072 67.2748 51.072H50.6068C49.3828 51.072 48.3868 50.7 47.6188 49.956C46.8748 49.188 46.5028 48.12 46.5028 46.752V12.184C46.5028 12.0047 46.574 11.8328 46.7008 11.706V11.706C46.8276 11.5792 46.9995 11.508 47.1788 11.508H49.6708C51.1348 11.508 52.1548 11.856 52.7308 12.552C53.3068 13.248 53.5948 14.388 53.5948 15.972V39.327C53.5948 42.5398 56.358 45.024 59.5708 45.024V45.024H67.0708Z" stroke="#0063B9"/>
<path d="M75.5739 31.416C75.5739 27.384 76.2579 23.832 77.6259 20.76C79.0179 17.664 81.0579 15.24 83.7459 13.488C86.4579 11.712 89.7819 10.824 93.7179 10.824C97.7019 10.824 101.038 11.7 103.726 13.452C106.438 15.204 108.478 17.628 109.846 20.724C111.238 23.82 111.934 27.384 111.934 31.416C111.934 35.424 111.238 38.976 109.846 42.072C108.454 45.168 106.402 47.592 103.69 49.344C100.978 51.072 97.6539 51.936 93.7179 51.936C89.7579 51.936 86.4339 51.06 83.7459 49.308C81.0579 47.532 79.0179 45.096 77.6259 42C76.2579 38.904 75.5739 35.376 75.5739 31.416ZM82.9179 31.416C82.9179 33.072 83.0739 34.776 83.3859 36.528C83.6979 38.28 84.2379 39.912 85.0059 41.424C85.7739 42.912 86.8659 44.124 88.2819 45.06C89.6979 45.972 91.5099 46.428 93.7179 46.428C95.9499 46.428 97.7739 45.972 99.1899 45.06C100.606 44.124 101.698 42.912 102.466 41.424C103.234 39.912 103.762 38.28 104.05 36.528C104.362 34.776 104.518 33.072 104.518 31.416C104.518 29.736 104.362 28.02 104.05 26.268C103.762 24.492 103.234 22.86 102.466 21.372C101.698 19.86 100.606 18.648 99.1899 17.736C97.7739 16.8 95.9499 16.332 93.7179 16.332C91.5099 16.332 89.6979 16.8 88.2819 17.736C86.8659 18.648 85.7739 19.86 85.0059 21.372C84.2379 22.86 83.6979 24.492 83.3859 26.268C83.0739 28.02 82.9179 29.736 82.9179 31.416Z" stroke="#0063B9"/>
<path d="M126.031 21.84C126.031 21.072 126.043 20.376 126.067 19.752C126.07 19.6578 126.073 19.5619 126.076 19.4642C126.109 18.4107 125.248 17.561 124.195 17.592V17.592C123.403 17.616 122.779 17.628 122.323 17.628H116.183C115.296 17.628 114.523 16.9985 114.439 16.116V16.116C114.391 15.612 114.367 15.156 114.367 14.748C114.367 14.316 114.391 13.836 114.439 13.308V13.308C114.521 12.4045 115.311 11.76 116.218 11.76H142.848C143.699 11.76 144.456 12.3213 144.571 13.164V13.164C144.643 13.668 144.679 14.1 144.679 14.46C144.679 15.492 144.403 16.284 143.851 16.836C143.323 17.364 142.327 17.628 140.863 17.628H136.759C136.327 17.628 135.703 17.616 134.887 17.592V17.592C133.873 17.5613 133.046 18.3784 133.075 19.3922C133.078 19.5149 133.082 19.6348 133.087 19.752C133.111 20.376 133.123 21.072 133.123 21.84V49.293C133.123 50.2879 132.423 51.1451 131.431 51.216V51.216C130.759 51.264 130.147 51.288 129.595 51.288C129.067 51.288 128.467 51.264 127.795 51.216V51.216C126.766 51.1425 126.031 50.2536 126.031 49.2218V21.84Z" stroke="#0063B9"/>
<path d="M158.256 49.222C158.256 50.2516 157.519 51.1399 156.492 51.216V51.216C155.868 51.264 155.28 51.288 154.728 51.288C154.224 51.288 153.636 51.264 152.964 51.216V51.216C151.916 51.1412 151.164 50.2365 151.164 49.1862V13.5755C151.164 12.5136 151.903 11.5819 152.964 11.544V11.544C153.636 11.496 154.224 11.472 154.728 11.472C155.28 11.472 155.868 11.496 156.492 11.544V11.544C157.532 11.5825 158.256 12.4987 158.256 13.5397V23.46C158.256 24.276 158.244 24.996 158.22 25.62C158.217 25.7027 158.214 25.7866 158.211 25.8719C158.178 26.8855 159.006 27.6994 160.02 27.672V27.672C160.932 27.648 161.544 27.636 161.856 27.636H172.332C172.62 27.636 173.208 27.648 174.096 27.672V27.672C175.13 27.6992 175.974 26.8694 175.94 25.8359C175.937 25.763 175.935 25.691 175.932 25.62C175.908 24.996 175.896 24.276 175.896 23.46V13.4684C175.896 12.4668 176.587 11.5825 177.588 11.544V11.544C178.212 11.496 178.8 11.472 179.352 11.472C179.88 11.472 180.48 11.496 181.152 11.544V11.544C182.232 11.5826 182.988 12.5307 182.988 13.6111V49.1864C182.988 50.2347 182.233 51.1386 181.188 51.216V51.216C180.564 51.264 179.964 51.288 179.388 51.288C178.836 51.288 178.248 51.264 177.624 51.216V51.216C176.618 51.1386 175.896 50.2667 175.896 49.2578V37.788C175.896 36.948 175.908 36.216 175.932 35.592C175.935 35.5095 175.938 35.4256 175.941 35.3402C175.974 34.3066 175.13 33.4768 174.096 33.504V33.504C173.208 33.528 172.62 33.54 172.332 33.54H161.856C161.544 33.54 160.932 33.528 160.02 33.504V33.504C159.006 33.4766 158.178 34.2905 158.21 35.3042C158.213 35.402 158.216 35.498 158.22 35.592C158.244 36.216 158.256 36.948 158.256 37.788V49.222Z" stroke="#0063B9"/>
<path d="M217.804 45.132C220.477 45.132 223.277 47.6941 221.6 49.776V49.776C220.904 50.616 219.74 51.036 218.108 51.036H199.424C198.176 51.036 197.18 50.664 196.436 49.92C195.692 49.152 195.32 48.108 195.32 46.788V12.436C195.32 12.2567 195.391 12.0848 195.518 11.958V11.958C195.645 11.8312 195.817 11.76 195.996 11.76H220.004C220.867 11.76 221.629 12.3736 221.672 13.236V13.236C221.696 13.716 221.708 14.16 221.708 14.568C221.708 14.952 221.66 15.42 221.564 15.972V15.972C221.432 16.9847 220.484 17.628 219.462 17.628H206.372C205.892 17.628 205.28 17.628 204.536 17.628C204.345 17.6218 204.153 17.6165 203.96 17.6119C203.026 17.5897 202.267 18.35 202.304 19.284V19.284C202.328 19.884 202.34 20.544 202.34 21.264V26.0516C202.34 27.253 203.335 28.212 204.536 28.212V28.212C205.28 28.212 205.892 28.212 206.372 28.212H216.383C217.311 28.212 218.176 28.7964 218.216 29.724V29.724C218.264 30.252 218.288 30.696 218.288 31.056C218.288 31.464 218.264 31.944 218.216 32.496V32.496C218.175 33.4022 217.325 33.972 216.418 33.972H206.372C205.892 33.972 205.28 33.972 204.536 33.972V33.972C203.324 33.9316 202.34 34.9194 202.34 36.1324V42.18C202.34 42.756 202.328 43.308 202.304 43.836V43.836C202.269 44.6123 202.93 45.2237 203.706 45.1876C203.862 45.1804 204.019 45.1738 204.176 45.168C204.848 45.144 205.64 45.132 206.552 45.132H217.804Z" stroke="#0063B9"/>
<path d="M246.758 48.272C244.944 47.3017 243.931 45.1828 244.965 43.404V43.404V43.404C245.954 41.7692 248.086 41.7038 249.777 42.5935C251.097 43.2881 252.493 43.9062 253.965 44.448C256.509 45.384 259.005 45.852 261.453 45.852C264.477 45.852 266.829 45.204 268.509 43.908C270.213 42.612 271.065 40.92 271.065 38.832C271.065 37.032 270.453 35.472 269.229 34.152C268.029 32.808 266.373 31.68 264.261 30.768L255.549 27.132C252.525 25.86 250.125 24.228 248.349 22.236C246.573 20.244 245.685 17.736 245.685 14.712C245.685 12.144 246.357 9.816 247.701 7.728C249.069 5.64 250.965 3.984 253.389 2.76C255.813 1.512 258.621 0.888 261.813 0.888C264.765 0.888 267.537 1.272 270.129 2.04C271.478 2.43603 272.728 2.85121 273.879 3.28554C275.729 3.98338 276.923 5.89233 276.105 7.692V7.692V7.692C275.29 9.44391 273.113 9.66459 271.31 8.96999C270.264 8.5669 269.174 8.2009 268.041 7.872C265.833 7.2 263.817 6.864 261.993 6.864C259.233 6.864 257.049 7.548 255.441 8.916C253.833 10.26 253.029 11.928 253.029 13.92C253.029 15.6 253.605 16.956 254.757 17.988C255.933 19.02 257.421 19.92 259.221 20.688L267.789 24.252C270.813 25.5 273.357 27.228 275.421 29.436C277.509 31.62 278.553 34.344 278.553 37.608C278.553 40.344 277.917 42.792 276.645 44.952C275.373 47.112 273.441 48.816 270.849 50.064C268.257 51.312 264.993 51.936 261.057 51.936C258.081 51.936 255.069 51.456 252.021 50.496C250.142 49.8844 248.387 49.1431 246.758 48.272Z" stroke="#0063B9"/>
<path d="M293.937 21.84C293.937 21.072 293.949 20.376 293.973 19.752C293.976 19.6578 293.98 19.5619 293.983 19.4642C294.015 18.4107 293.155 17.561 292.101 17.592V17.592C291.309 17.616 290.685 17.628 290.229 17.628H284.089C283.202 17.628 282.429 16.9985 282.345 16.116V16.116C282.297 15.612 282.273 15.156 282.273 14.748C282.273 14.316 282.297 13.836 282.345 13.308V13.308C282.427 12.4045 283.217 11.76 284.125 11.76H310.754C311.605 11.76 312.362 12.3213 312.477 13.164V13.164C312.549 13.668 312.585 14.1 312.585 14.46C312.585 15.492 312.309 16.284 311.757 16.836C311.229 17.364 310.233 17.628 308.769 17.628H304.665C304.233 17.628 303.609 17.616 302.793 17.592V17.592C301.779 17.5613 300.952 18.3784 300.981 19.3922C300.985 19.5149 300.989 19.6348 300.993 19.752C301.017 20.376 301.029 21.072 301.029 21.84V49.293C301.029 50.2879 300.329 51.1451 299.337 51.216V51.216C298.665 51.264 298.053 51.288 297.501 51.288C296.973 51.288 296.373 51.264 295.701 51.216V51.216C294.672 51.1425 293.937 50.2536 293.937 49.2219V21.84Z" stroke="#0063B9"/>
<path d="M350.93 37.104C350.93 41.904 349.466 45.576 346.538 48.12C343.634 50.664 339.674 51.936 334.658 51.936C329.666 51.936 325.706 50.664 322.778 48.12C319.874 45.576 318.422 41.904 318.422 37.104V12.1176C318.422 11.957 318.482 11.8022 318.59 11.6833V11.6833C318.712 11.5487 318.886 11.472 319.068 11.472H321.482C322.922 11.472 323.954 11.844 324.578 12.588C325.202 13.308 325.514 14.46 325.514 16.044V37.068C325.514 40.02 326.282 42.288 327.818 43.872C329.354 45.456 331.634 46.248 334.658 46.248C337.73 46.248 340.022 45.456 341.534 43.872C343.046 42.288 343.802 40.02 343.802 37.068V13.5022C343.802 12.4933 344.524 11.6214 345.53 11.544V11.544C346.154 11.496 346.73 11.472 347.258 11.472C347.786 11.472 348.386 11.496 349.058 11.544V11.544C350.159 11.6199 350.93 12.5831 350.93 13.6865V37.104Z" stroke="#0063B9"/>
<path d="M395.031 31.452C395.031 37.932 393.591 42.852 390.711 46.212C387.831 49.572 383.139 51.252 376.635 51.252C374.883 51.252 373.311 51.24 371.919 51.216C370.551 51.192 369.159 51.168 367.743 51.144C366.422 51.1212 364.905 51.0876 363.194 51.0432C363.018 51.0386 362.85 50.9665 362.725 50.8417V50.8417C362.596 50.7126 362.523 50.5374 362.523 50.3547V12.4108C362.523 12.2256 362.601 12.049 362.738 11.9244V11.9244C362.855 11.8183 363.006 11.7577 363.164 11.7537C364.91 11.7088 366.449 11.6749 367.779 11.652C369.171 11.604 370.551 11.568 371.919 11.544C373.311 11.52 374.883 11.508 376.635 11.508C383.115 11.508 387.795 13.236 390.675 16.692C393.579 20.148 395.031 25.068 395.031 31.452ZM387.687 31.452C387.687 29.796 387.555 28.128 387.291 26.448C387.027 24.768 386.511 23.232 385.743 21.84C384.975 20.424 383.859 19.296 382.395 18.456C380.931 17.616 378.999 17.196 376.599 17.196C375.255 17.196 374.043 17.184 372.963 17.16V17.16C371.095 17.1175 369.579 18.6392 369.579 20.5083V42.2878C369.579 44.1767 371.111 45.7149 372.999 45.672V45.672C374.055 45.648 375.255 45.636 376.599 45.636C378.999 45.636 380.931 45.216 382.395 44.376C383.859 43.512 384.975 42.384 385.743 40.992C386.511 39.6 387.027 38.076 387.291 36.42C387.555 34.74 387.687 33.084 387.687 31.452Z" stroke="#0063B9"/>
<path d="M404.611 13.5382C404.611 12.5064 405.346 11.6175 406.375 11.544V11.544C407.071 11.496 407.671 11.472 408.175 11.472C408.727 11.472 409.315 11.496 409.939 11.544V11.544C410.964 11.6228 411.703 12.5102 411.703 13.5379V49.2221C411.703 50.2498 410.964 51.1372 409.939 51.216V51.216C409.315 51.264 408.727 51.288 408.175 51.288C407.671 51.288 407.071 51.264 406.375 51.216V51.216C405.346 51.1425 404.611 50.2536 404.611 49.2218V13.5382Z" stroke="#0063B9"/>
<path d="M421.09 31.416C421.09 27.384 421.774 23.832 423.142 20.76C424.534 17.664 426.574 15.24 429.262 13.488C431.974 11.712 435.298 10.824 439.234 10.824C443.218 10.824 446.554 11.7 449.242 13.452C451.954 15.204 453.994 17.628 455.362 20.724C456.754 23.82 457.45 27.384 457.45 31.416C457.45 35.424 456.754 38.976 455.362 42.072C453.97 45.168 451.918 47.592 449.206 49.344C446.494 51.072 443.17 51.936 439.234 51.936C435.274 51.936 431.95 51.06 429.262 49.308C426.574 47.532 424.534 45.096 423.142 42C421.774 38.904 421.09 35.376 421.09 31.416ZM428.434 31.416C428.434 33.072 428.59 34.776 428.902 36.528C429.214 38.28 429.754 39.912 430.522 41.424C431.29 42.912 432.382 44.124 433.798 45.06C435.214 45.972 437.026 46.428 439.234 46.428C441.466 46.428 443.29 45.972 444.706 45.06C446.122 44.124 447.214 42.912 447.982 41.424C448.75 39.912 449.278 38.28 449.566 36.528C449.878 34.776 450.034 33.072 450.034 31.416C450.034 29.736 449.878 28.02 449.566 26.268C449.278 24.492 448.75 22.86 447.982 21.372C447.214 19.86 446.122 18.648 444.706 17.736C443.29 16.8 441.466 16.332 439.234 16.332C437.026 16.332 435.214 16.8 433.798 17.736C432.382 18.648 431.29 19.86 430.522 21.372C429.754 22.86 429.214 24.492 428.902 26.268C428.59 28.02 428.434 29.736 428.434 31.416Z" stroke="#0063B9"/>
</g>
<defs>
<filter id="filter0_i" x="0.672001" y="0.888" width="456.778" height="55.048" filterUnits="userSpaceOnUse" color-interpolation-filters="sRGB">
<feFlood flood-opacity="0" result="BackgroundImageFix"/>
<feBlend mode="normal" in="SourceGraphic" in2="BackgroundImageFix" result="shape"/>
<feColorMatrix in="SourceAlpha" type="matrix" values="0 0 0 0 0 0 0 0 0 0 0 0 0 0 0 0 0 0 127 0" result="hardAlpha"/>
<feOffset dy="4"/>
<feGaussianBlur stdDeviation="2"/>
<feComposite in2="hardAlpha" operator="arithmetic" k2="-1" k3="1"/>
<feColorMatrix type="matrix" values="0 0 0 0 0 0 0 0 0 0 0 0 0 0 0 0 0 0 0.25 0"/>
<feBlend mode="normal" in2="shape" result="effect1_innerShadow"/>
</filter>
</defs>
</svg>
