<svg xmlns="http://www.w3.org/2000/svg" style="margin:auto;display:block;" width="892" height="250" preserveAspectRatio="xMidYMid">
<style type="text/css">
  text {
    text-anchor: middle; 
    font-size: 80px; 
    opacity: 0;
  }
</style>
<g style="transform-origin:446px 125px;transform:scale(1)">
<g transform="translate(446,125)">
<g transform="translate(0,0)">
<g class="path" style="transform: matrix(1, 0, 0, 1, 0, 199); opacity: 0.05; transform-origin: -372.36px 1.9396px; animation: 1s linear 0s 1 normal forwards running slide-btt-in-9c33915a-aa92-416b-831e-42502b3938f2;">
<path d="M42.72 9.52L42.72 9.52L23.20 9.52L23.20 9.52Q12.72 9.52 7.72 4.08L7.72 4.08L7.72 4.08Q2.72-1.36 2.72-10L2.72-10L2.72-32.48L2.72-32.48Q2.72-36.88 4-40.12L4-40.12L4-40.12Q5.28-43.36 7.76-45.52L7.76-45.52L18.16-54.24L18.16-54.24Q20.64-56.32 24.48-57.36L24.48-57.36L24.48-57.36Q28.32-58.40 33.52-58.40L33.52-58.40L53.04-58.40L53.04-58.40Q54.96-58.40 55.84-57.52L55.84-57.52L55.84-57.52Q56.72-56.64 56.72-54.72L56.72-54.72L56.72-45.04L56.72-45.04Q56.72-44 56.44-43.28L56.44-43.28L56.44-43.28Q56.16-42.56 55.60-42.08L55.60-42.08L45.20-33.44L45.20-33.44Q44.88-33.12 44.20-32.88L44.20-32.88L44.20-32.88Q43.52-32.64 42.72-32.64L42.72-32.64L32.88-32.64L32.88-19.12L32.88-19.12Q32.88-17.44 33.92-16.76L33.92-16.76L33.92-16.76Q34.96-16.08 36.96-16.08L36.96-16.08L53.04-16.08L53.04-16.08Q54.96-16.08 55.84-15.20L55.84-15.20L55.84-15.20Q56.72-14.32 56.72-12.40L56.72-12.40L56.72-2.88L56.72-2.88Q56.72-1.84 56.44-1.12L56.44-1.12L56.44-1.12Q56.16-0.40 55.60 0.08L55.60 0.08L45.20 8.72L45.20 8.72Q44.88 9.04 44.20 9.28L44.20 9.28L44.20 9.28Q43.52 9.52 42.72 9.52zM33.52 0L53.04 0L53.04 0Q54.56 0 55.24-0.68L55.24-0.68L55.24-0.68Q55.92-1.36 55.92-2.88L55.92-2.88L55.92-12.40L55.92-12.40Q55.92-13.92 55.24-14.60L55.24-14.60L55.24-14.60Q54.56-15.28 53.04-15.28L53.04-15.28L36.96-15.28L36.96-15.28Q34.48-15.28 33.28-16.20L33.28-16.20L33.28-16.20Q32.08-17.12 32.08-19.12L32.08-19.12L32.08-38.16L32.08-38.16Q32.08-40.16 33.28-41.16L33.28-41.16L33.28-41.16Q34.48-42.16 36.96-42.16L36.96-42.16L53.04-42.16L53.04-42.16Q54.56-42.16 55.24-42.84L55.24-42.84L55.24-42.84Q55.92-43.52 55.92-45.04L55.92-45.04L55.92-54.72L55.92-54.72Q55.92-56.24 55.24-56.92L55.24-56.92L55.24-56.92Q54.56-57.60 53.04-57.60L53.04-57.60L33.52-57.60L33.52-57.60Q23.52-57.60 18.68-53.56L18.68-53.56L18.68-53.56Q13.84-49.52 13.84-41.20L13.84-41.20L13.84-16.32L13.84-16.32Q13.84-8 18.68-4L18.68-4L18.68-4Q23.52 0 33.52 0L33.52 0zM35.28-8L48.64-8L48.64-7.20L35.28-7.20L35.28-7.20Q27.52-7.20 25-9.60L25-9.60L25-9.60Q22.48-12 22.48-17.52L22.48-17.52L22.48-39.92L22.48-39.92Q22.48-45.60 25.04-48L25.04-48L25.04-48Q27.60-50.40 35.28-50.40L35.28-50.40L48.64-50.40L48.64-49.60L35.28-49.60L35.28-49.60Q28.24-49.60 25.76-47.40L25.76-47.40L25.76-47.40Q23.28-45.20 23.28-39.92L23.28-39.92L23.28-17.52L23.28-17.52Q23.28-12.32 25.68-10.16L25.68-10.16L25.68-10.16Q28.08-8 35.28-8L35.28-8" fill="#109ad7" stroke="none" stroke-width="none" transform="translate(-402.0799808502197,26.379603169759122)" style="fill: rgb(16, 154, 215);">
</path></g><g class="path" style="transform: matrix(1, 0, 0, 1, 0, 199); opacity: 0.05; transform-origin: -311.04px 1.9396px; animation: 1s linear 0.055s 1 normal forwards running slide-btt-in-9c33915a-aa92-416b-831e-42502b3938f2;"><path d="M106.24 9.52L106.24 9.52L65.52 9.52L65.52 9.52Q63.60 9.52 62.72 8.64L62.72 8.64L62.72 8.64Q61.84 7.76 61.84 5.84L61.84 5.84L61.84-46L61.84-46Q61.84-47.04 62.12-47.76L62.12-47.76L62.12-47.76Q62.40-48.48 62.96-48.96L62.96-48.96L73.28-57.68L73.28-57.68Q73.68-58 74.36-58.20L74.36-58.20L74.36-58.20Q75.04-58.40 75.84-58.40L75.84-58.40L88.24-58.40L88.24-58.40Q90.16-58.40 91.04-57.52L91.04-57.52L91.04-57.52Q91.92-56.64 91.92-54.72L91.92-54.72L91.92-22.16L92.08-22.32L102.40-31.04L102.40-31.04Q102.80-31.36 103.48-31.56L103.48-31.56L103.48-31.56Q104.16-31.76 104.96-31.76L104.96-31.76L116.56-31.76L116.56-31.76Q118.48-31.76 119.36-30.88L119.36-30.88L119.36-30.88Q120.24-30 120.24-28.08L120.24-28.08L120.24-2.88L120.24-2.88Q120.24-1.84 119.96-1.12L119.96-1.12L119.96-1.12Q119.68-0.40 119.12 0.08L119.12 0.08L108.72 8.72L108.72 8.72Q108.40 9.04 107.72 9.28L107.72 9.28L107.72 9.28Q107.04 9.52 106.24 9.52zM75.84 0L116.56 0L116.56 0Q118.08 0 118.76-0.68L118.76-0.68L118.76-0.68Q119.44-1.36 119.44-2.88L119.44-2.88L119.44-28.08L119.44-28.08Q119.44-29.60 118.76-30.28L118.76-30.28L118.76-30.28Q118.08-30.96 116.56-30.96L116.56-30.96L104.96-30.96L104.96-30.96Q103.44-30.96 102.76-30.28L102.76-30.28L102.76-30.28Q102.08-29.60 102.08-28.08L102.08-28.08L102.08-15.12L91.12-15.12L91.12-54.72L91.12-54.72Q91.12-56.24 90.44-56.92L90.44-56.92L90.44-56.92Q89.76-57.60 88.24-57.60L88.24-57.60L75.84-57.60L75.84-57.60Q74.32-57.60 73.64-56.92L73.64-56.92L73.64-56.92Q72.96-56.24 72.96-54.72L72.96-54.72L72.96-2.88L72.96-2.88Q72.96-1.36 73.64-0.68L73.64-0.68L73.64-0.68Q74.32 0 75.84 0L75.84 0zM111.12-7.20L81.68-7.20L81.68-50.40L82.48-50.40L82.48-8L110.32-8L110.32-23.76L111.12-23.76L111.12-7.20" fill="#109ad7" stroke="none" stroke-width="none" transform="translate(-402.0799808502197,26.379603169759122)" style="fill: rgb(16, 154, 215);">
</path></g><g class="path" style="transform: matrix(1, 0, 0, 1, 0, 199); opacity: 0.05; transform-origin: -246.72px 1.9396px; animation: 1s linear 0.11s 1 normal forwards running slide-btt-in-9c33915a-aa92-416b-831e-42502b3938f2;"><path d="M181.36-2.96L171.04 5.68L171.04 5.68Q168.24 8.08 163.20 9.40L163.20 9.40L163.20 9.40Q158.16 10.72 150.24 10.72L150.24 10.72L150.24 10.72Q142.40 10.72 137.40 9.08L137.40 9.08L137.40 9.08Q132.40 7.44 129.56 4.72L129.56 4.72L129.56 4.72Q126.72 2 125.64-1.52L125.64-1.52L125.64-1.52Q124.56-5.04 124.56-8.80L124.56-8.80L124.56-33.68L124.56-33.68Q124.56-37.36 125.60-40.52L125.60-40.52L125.60-40.52Q126.64-43.68 129.36-45.92L129.36-45.92L139.76-54.56L139.76-54.56Q142.56-56.96 147.56-58.28L147.56-58.28L147.56-58.28Q152.56-59.60 160.56-59.60L160.56-59.60L160.56-59.60Q168.40-59.60 173.40-58.32L173.40-58.32L173.40-58.32Q178.40-57.04 181.24-54.76L181.24-54.76L181.24-54.76Q184.08-52.48 185.12-49.32L185.12-49.32L185.12-49.32Q186.16-46.16 186.16-42.40L186.16-42.40L186.16-15.12L186.16-15.12Q186.16-11.44 185.12-8.32L185.12-8.32L185.12-8.32Q184.08-5.20 181.36-2.96L181.36-2.96zM185.36-15.12L185.36-15.12L185.36-42.40L185.36-42.40Q185.36-46.08 184.28-49.08L184.28-49.08L184.28-49.08Q183.20-52.08 180.44-54.24L180.44-54.24L180.44-54.24Q177.68-56.40 172.84-57.60L172.84-57.60L172.84-57.60Q168-58.80 160.56-58.80L160.56-58.80L160.56-58.80Q153.12-58.80 148.24-57.60L148.24-57.60L148.24-57.60Q143.36-56.40 140.60-54.24L140.60-54.24L140.60-54.24Q137.84-52.08 136.76-49.08L136.76-49.08L136.76-49.08Q135.68-46.08 135.68-42.40L135.68-42.40L135.68-15.12L135.68-15.12Q135.68-11.44 136.76-8.44L136.76-8.44L136.76-8.44Q137.84-5.44 140.60-3.32L140.60-3.32L140.60-3.32Q143.36-1.20 148.24 0L148.24 0L148.24 0Q153.12 1.20 160.56 1.20L160.56 1.20L160.56 1.20Q168 1.20 172.84 0L172.84 0L172.84 0Q177.68-1.20 180.44-3.32L180.44-3.32L180.44-3.32Q183.20-5.44 184.28-8.44L184.28-8.44L184.28-8.44Q185.36-11.44 185.36-15.12zM176.64-40.56L176.64-16.96L176.64-16.96Q176.64-12.16 173.20-9.16L173.20-9.16L173.20-9.16Q169.76-6.16 160.40-6.16L160.40-6.16L160.40-6.16Q151.04-6.16 147.68-9.16L147.68-9.16L147.68-9.16Q144.32-12.16 144.32-16.96L144.32-16.96L144.32-40.56L144.32-40.56Q144.32-45.36 147.68-48.36L147.68-48.36L147.68-48.36Q151.04-51.36 160.40-51.36L160.40-51.36L160.40-51.36Q169.76-51.36 173.20-48.36L173.20-48.36L173.20-48.36Q176.64-45.36 176.64-40.56L176.64-40.56zM145.12-40.56L145.12-16.96L145.12-16.96Q145.12-12.48 148.32-9.72L148.32-9.72L148.32-9.72Q151.52-6.96 160.40-6.96L160.40-6.96L160.40-6.96Q169.28-6.96 172.56-9.72L172.56-9.72L172.56-9.72Q175.84-12.48 175.84-16.96L175.84-16.96L175.84-40.56L175.84-40.56Q175.84-45.04 172.56-47.80L172.56-47.80L172.56-47.80Q169.28-50.56 160.40-50.56L160.40-50.56L160.40-50.56Q151.52-50.56 148.32-47.80L148.32-47.80L148.32-47.80Q145.12-45.04 145.12-40.56L145.12-40.56zM153.84-18L153.84-18L153.84-39.52L153.84-39.52Q153.84-41.04 155.04-42.12L155.04-42.12L155.04-42.12Q156.24-43.20 160.56-43.20L160.56-43.20L160.56-43.20Q164.88-43.20 166.08-42.12L166.08-42.12L166.08-42.12Q167.28-41.04 167.28-39.52L167.28-39.52L167.28-18L167.28-18Q167.28-16.40 166.08-15.32L166.08-15.32L166.08-15.32Q164.88-14.24 160.56-14.24L160.56-14.24L160.56-14.24Q156.24-14.24 155.04-15.32L155.04-15.32L155.04-15.32Q153.84-16.40 153.84-18zM154.64-33.12L154.64-18L154.64-18Q154.64-17.20 154.96-16.60L154.96-16.60L154.96-16.60Q155.28-16 156.16-15.60L156.16-15.60L156.16-30.80L156.16-30.80Q156.16-31.60 155.84-32.20L155.84-32.20L155.84-32.20Q155.52-32.80 154.64-33.12L154.64-33.12" fill="#109ad7" stroke="none" stroke-width="none" transform="translate(-402.0799808502197,26.379603169759122)" style="fill: rgb(16, 154, 215);">
</path></g>
<g class="path" style="transform: matrix(1, 0, 0, 1, 0, 199); opacity: 0.05; transform-origin: -183px 1.9396px; animation: 1s linear 0.165s 1 normal forwards running slide-btt-in-9c33915a-aa92-416b-831e-42502b3938f2;"><path d="M220.40 9.52L220.40 9.52L207.44 9.52L207.44 9.52Q205.52 9.52 204.64 8.64L204.64 8.64L204.64 8.64Q203.76 7.76 203.76 5.84L203.76 5.84L203.76-32.64L192.80-32.64L192.80-32.64Q190.88-32.64 190-33.52L190-33.52L190-33.52Q189.12-34.40 189.12-36.32L189.12-36.32L189.12-46L189.12-46Q189.12-47.04 189.40-47.76L189.40-47.76L189.40-47.76Q189.68-48.48 190.24-48.96L190.24-48.96L200.56-57.68L200.56-57.68Q200.96-58 201.64-58.20L201.64-58.20L201.64-58.20Q202.32-58.40 203.12-58.40L203.12-58.40L245.36-58.40L245.36-58.40Q247.28-58.40 248.16-57.52L248.16-57.52L248.16-57.52Q249.04-56.64 249.04-54.72L249.04-54.72L249.04-45.04L249.04-45.04Q249.04-44 248.76-43.28L248.76-43.28L248.76-43.28Q248.48-42.56 247.92-42.08L247.92-42.08L237.52-33.44L237.52-33.44Q237.20-33.12 236.52-32.88L236.52-32.88L236.52-32.88Q235.84-32.64 235.04-32.64L235.04-32.64L234.40-32.64L234.40-2.88L234.40-2.88Q234.40-1.84 234.12-1.12L234.12-1.12L234.12-1.12Q233.84-0.40 233.28 0.08L233.28 0.08L222.88 8.72L222.88 8.72Q222.56 9.04 221.88 9.28L221.88 9.28L221.88 9.28Q221.20 9.52 220.40 9.52zM217.76 0L230.72 0L230.72 0Q232.24 0 232.92-0.68L232.92-0.68L232.92-0.68Q233.60-1.36 233.60-2.88L233.60-2.88L233.60-42.16L245.36-42.16L245.36-42.16Q246.88-42.16 247.56-42.84L247.56-42.84L247.56-42.84Q248.24-43.52 248.24-45.04L248.24-45.04L248.24-54.72L248.24-54.72Q248.24-56.24 247.56-56.92L247.56-56.92L247.56-56.92Q246.88-57.60 245.36-57.60L245.36-57.60L203.12-57.60L203.12-57.60Q201.60-57.60 200.92-56.92L200.92-56.92L200.92-56.92Q200.24-56.24 200.24-54.72L200.24-54.72L200.24-45.04L200.24-45.04Q200.24-43.52 200.92-42.84L200.92-42.84L200.92-42.84Q201.60-42.16 203.12-42.16L203.12-42.16L214.88-42.16L214.88-2.88L214.88-2.88Q214.88-1.36 215.56-0.68L215.56-0.68L215.56-0.68Q216.24 0 217.76 0L217.76 0zM224.64-7.20L223.84-7.20L223.84-49.60L207.44-49.60L207.44-50.40L241.04-50.40L241.04-49.60L224.64-49.60L224.64-7.20" fill="#109ad7" stroke="none" stroke-width="none" transform="translate(-402.0799808502197,26.379603169759122)" style="fill: rgb(16, 154, 215);">
</path></g>
<g class="path" style="transform: matrix(1, 0, 0, 1, 0, 199); opacity: 0.05; transform-origin: -118.4px 1.9396px; animation: 1s linear 0.22s 1 normal forwards running slide-btt-in-9c33915a-aa92-416b-831e-42502b3938f2;">
<path d="M273.44-7.20L272.64-7.20L272.64-50.40L273.44-50.40L273.44-29.20L304.16-29.20L304.16-50.40L304.96-50.40L304.96-7.20L304.16-7.20L304.16-28.40L273.44-28.40L273.44-7.20zM266.88 0L279.28 0L279.28 0Q280.80 0 281.48-0.68L281.48-0.68L281.48-0.68Q282.16-1.36 282.16-2.88L282.16-2.88L282.16-20.64L295.52-20.64L295.52-2.88L295.52-2.88Q295.52-1.36 296.20-0.68L296.20-0.68L296.20-0.68Q296.88 0 298.40 0L298.40 0L310.80 0L310.80 0Q312.32 0 313-0.68L313-0.68L313-0.68Q313.68-1.36 313.68-2.88L313.68-2.88L313.68-54.72L313.68-54.72Q313.68-56.24 313-56.92L313-56.92L313-56.92Q312.32-57.60 310.80-57.60L310.80-57.60L298.40-57.60L298.40-57.60Q296.88-57.60 296.20-56.92L296.20-56.92L296.20-56.92Q295.52-56.24 295.52-54.72L295.52-54.72L295.52-37.36L282.16-37.36L282.16-54.72L282.16-54.72Q282.16-56.24 281.48-56.92L281.48-56.92L281.48-56.92Q280.80-57.60 279.28-57.60L279.28-57.60L266.88-57.60L266.88-57.60Q265.36-57.60 264.68-56.92L264.68-56.92L264.68-56.92Q264.00-56.24 264.00-54.72L264.00-54.72L264.00-2.88L264.00-2.88Q264.00-1.36 264.68-0.68L264.68-0.68L264.68-0.68Q265.36 0 266.88 0L266.88 0zM281.84 0.08L281.84 0.08L271.44 8.72L271.44 8.72Q271.12 9.04 270.44 9.28L270.44 9.28L270.44 9.28Q269.76 9.52 268.96 9.52L268.96 9.52L256.56 9.52L256.56 9.52Q254.64 9.52 253.76 8.64L253.76 8.64L253.76 8.64Q252.88 7.76 252.88 5.84L252.88 5.84L252.88-46L252.88-46Q252.88-47.04 253.16-47.76L253.16-47.76L253.16-47.76Q253.44-48.48 254.00-48.96L254.00-48.96L264.32-57.68L264.32-57.68Q264.72-58 265.40-58.20L265.40-58.20L265.40-58.20Q266.08-58.40 266.88-58.40L266.88-58.40L279.28-58.40L279.28-58.40Q281.20-58.40 282.08-57.52L282.08-57.52L282.08-57.52Q282.96-56.64 282.96-54.72L282.96-54.72L282.96-38.16L284.40-38.16L284.40-46L284.40-46Q284.40-47.04 284.68-47.76L284.68-47.76L284.68-47.76Q284.96-48.48 285.52-48.96L285.52-48.96L295.84-57.68L295.84-57.68Q296.24-58 296.92-58.20L296.92-58.20L296.92-58.20Q297.60-58.40 298.40-58.40L298.40-58.40L310.80-58.40L310.80-58.40Q312.72-58.40 313.60-57.52L313.60-57.52L313.60-57.52Q314.48-56.64 314.48-54.72L314.48-54.72L314.48-2.88L314.48-2.88Q314.48-1.84 314.20-1.12L314.20-1.12L314.20-1.12Q313.92-0.40 313.36 0.08L313.36 0.08L302.96 8.72L302.96 8.72Q302.64 9.04 301.96 9.28L301.96 9.28L301.96 9.28Q301.28 9.52 300.48 9.52L300.48 9.52L288.08 9.52L288.08 9.52Q286.16 9.52 285.28 8.64L285.28 8.64L285.28 8.64Q284.40 7.76 284.40 5.84L284.40 5.84L284.40-11.12L282.96-11.12L282.96-2.88L282.96-2.88Q282.96-1.84 282.68-1.12L282.68-1.12L282.68-1.12Q282.40-0.40 281.84 0.08" fill="#109ad7" stroke="none" stroke-width="none" transform="translate(-402.0799808502197,26.379603169759122)" style="fill: rgb(16, 154, 215);"></path></g>
<g class="path" style="transform: matrix(1, 0, 0, 1, 0, 199); opacity: 0.05; transform-origin: -53.08px 1.9396px; animation: 1s linear 0.275s 1 normal forwards running slide-btt-in-9c33915a-aa92-416b-831e-42502b3938f2;"><path d="M362.40 9.52L362.40 9.52L325.28 9.52L325.28 9.52Q323.36 9.52 322.48 8.64L322.48 8.64L322.48 8.64Q321.60 7.76 321.60 5.84L321.60 5.84L321.60-46L321.60-46Q321.60-47.04 321.88-47.76L321.88-47.76L321.88-47.76Q322.16-48.48 322.72-48.96L322.72-48.96L333.04-57.68L333.04-57.68Q333.44-58 334.12-58.20L334.12-58.20L334.12-58.20Q334.80-58.40 335.60-58.40L335.60-58.40L372.72-58.40L372.72-58.40Q374.64-58.40 375.52-57.52L375.52-57.52L375.52-57.52Q376.40-56.64 376.40-54.72L376.40-54.72L376.40-45.36L376.40-45.36Q376.40-44.32 376.12-43.60L376.12-43.60L376.12-43.60Q375.84-42.88 375.28-42.40L375.28-42.40L368.40-36.72L368.40-36.72Q369.20-36.32 369.56-35.52L369.56-35.52L369.56-35.52Q369.92-34.72 369.92-33.44L369.92-33.44L369.92-24.88L369.92-24.88Q369.92-23.84 369.64-23.12L369.64-23.12L369.64-23.12Q369.36-22.40 368.80-21.92L368.80-21.92L361.68-15.92L372.72-15.92L372.72-15.92Q374.64-15.92 375.52-15.04L375.52-15.04L375.52-15.04Q376.40-14.16 376.40-12.24L376.40-12.24L376.40-2.88L376.40-2.88Q376.40-1.84 376.12-1.12L376.12-1.12L376.12-1.12Q375.84-0.40 375.28 0.08L375.28 0.08L364.88 8.72L364.88 8.72Q364.56 9.04 363.88 9.28L363.88 9.28L363.88 9.28Q363.20 9.52 362.40 9.52zM335.60 0L372.72 0L372.72 0Q374.24 0 374.92-0.68L374.92-0.68L374.92-0.68Q375.60-1.36 375.60-2.88L375.60-2.88L375.60-12.24L375.60-12.24Q375.60-13.76 374.92-14.44L374.92-14.44L374.92-14.44Q374.24-15.12 372.72-15.12L372.72-15.12L350.64-15.12L350.64-22L366.24-22L366.24-22Q367.76-22 368.44-22.68L368.44-22.68L368.44-22.68Q369.12-23.36 369.12-24.88L369.12-24.88L369.12-33.44L369.12-33.44Q369.12-34.96 368.44-35.64L368.44-35.64L368.44-35.64Q367.76-36.32 366.24-36.32L366.24-36.32L350.64-36.32L350.64-42.48L372.72-42.48L372.72-42.48Q374.24-42.48 374.92-43.16L374.92-43.16L374.92-43.16Q375.60-43.84 375.60-45.36L375.60-45.36L375.60-54.72L375.60-54.72Q375.60-56.24 374.92-56.92L374.92-56.92L374.92-56.92Q374.24-57.60 372.72-57.60L372.72-57.60L335.60-57.60L335.60-57.60Q334.08-57.60 333.40-56.92L333.40-56.92L333.40-56.92Q332.72-56.24 332.72-54.72L332.72-54.72L332.72-2.88L332.72-2.88Q332.72-1.36 333.40-0.68L333.40-0.68L333.40-0.68Q334.08 0 335.60 0L335.60 0zM342.24-8L368.40-8L368.40-7.20L341.44-7.20L341.44-50.40L368.40-50.40L368.40-49.60L342.24-49.60L342.24-29.52L361.92-29.52L361.92-28.72L342.24-28.72L342.24-8" fill="#109ad7" stroke="none" stroke-width="none" transform="translate(-402.0799808502197,26.379603169759122)" style="fill: rgb(16, 154, 215);"></path>
</g><g class="path" style="transform: matrix(1, 0, 0, 1, 0, 199); opacity: 0.05; transform-origin: 58.72px 1.9396px; animation: 1s linear 0.33s 1 normal forwards running slide-btt-in-9c33915a-aa92-416b-831e-42502b3938f2;"><path d="M461.44 9.52L436.16 9.52L436.16 9.52Q434.24 9.52 433.36 8.64L433.36 8.64L433.36 8.64Q432.48 7.76 432.48 5.84L432.48 5.84L432.48-3.52L432.48-3.52Q432.48-4.56 432.76-5.28L432.76-5.28L432.76-5.28Q433.04-6 433.60-6.48L433.60-6.48L441.60-13.20L441.60-13.20Q437.36-14.48 434.92-17.56L434.92-17.56L434.92-17.56Q432.48-20.64 432.48-26.40L432.48-26.40L432.48-34.80L432.48-34.80Q432.48-38.40 433.68-41.20L433.68-41.20L433.68-41.20Q434.88-44 437.12-45.92L437.12-45.92L447.52-54.64L447.52-54.64Q449.68-56.40 452.88-57.40L452.88-57.40L452.88-57.40Q456.08-58.40 460.16-58.40L460.16-58.40L482.56-58.40L482.56-58.40Q484.48-58.40 485.36-57.52L485.36-57.52L485.36-57.52Q486.24-56.64 486.24-54.72L486.24-54.72L486.24-45.20L486.24-45.20Q486.24-44.16 485.96-43.44L485.96-43.44L485.96-43.44Q485.68-42.72 485.12-42.24L485.12-42.24L477.92-36.24L477.92-36.24Q482.96-35.12 486.04-32.04L486.04-32.04L486.04-32.04Q489.12-28.96 489.12-22.48L489.12-22.48L489.12-14.08L489.12-14.08Q489.12-10.48 487.92-7.68L487.92-7.68L487.92-7.68Q486.72-4.88 484.40-2.96L484.40-2.96L474.08 5.68L474.08 5.68Q471.84 7.52 468.64 8.52L468.64 8.52L468.64 8.52Q465.44 9.52 461.44 9.52L461.44 9.52zM446.48 0L471.76 0L471.76 0Q479.44 0 483.88-3.64L483.88-3.64L483.88-3.64Q488.32-7.28 488.32-14.08L488.32-14.08L488.32-22.48L488.32-22.48Q488.32-29.20 484.88-32.08L484.88-32.08L484.88-32.08Q481.44-34.96 475.84-35.76L475.84-35.76L463.92-37.36L463.92-37.36Q462.88-37.44 462.32-38.16L462.32-38.16L462.32-38.16Q461.76-38.88 461.76-39.92L461.76-39.92L461.76-39.92Q461.76-40.96 462.32-41.64L462.32-41.64L462.32-41.64Q462.88-42.32 463.92-42.32L463.92-42.32L482.56-42.32L482.56-42.32Q484.08-42.32 484.76-43L484.76-43L484.76-43Q485.44-43.68 485.44-45.20L485.44-45.20L485.44-54.72L485.44-54.72Q485.44-56.24 484.76-56.92L484.76-56.92L484.76-56.92Q484.08-57.60 482.56-57.60L482.56-57.60L460.16-57.60L460.16-57.60Q452.40-57.60 448-53.96L448-53.96L448-53.96Q443.60-50.32 443.60-43.52L443.60-43.52L443.60-35.12L443.60-35.12Q443.60-28.40 447-25.52L447-25.52L447-25.52Q450.40-22.64 456-21.84L456-21.84L468-20.16L468-20.16Q469.04-20.08 469.56-19.44L469.56-19.44L469.56-19.44Q470.08-18.80 470.08-17.44L470.08-17.44L470.08-17.44Q470.08-16.48 469.56-15.80L469.56-15.80L469.56-15.80Q469.04-15.12 468-15.12L468-15.12L446.48-15.12L446.48-15.12Q444.96-15.12 444.28-14.44L444.28-14.44L444.28-14.44Q443.60-13.76 443.60-12.24L443.60-12.24L443.60-2.88L443.60-2.88Q443.60-1.36 444.28-0.68L444.28-0.68L444.28-0.68Q444.96 0 446.48 0L446.48 0zM460.48-50.40L478.24-50.40L478.24-49.60L460.48-49.60L460.48-49.60Q457.12-49.60 455.12-47.76L455.12-47.76L455.12-47.76Q453.12-45.92 453.12-43.12L453.12-43.12L453.12-36.56L453.12-36.56Q453.12-33.76 454.24-32.64L454.24-32.64L454.24-32.64Q455.36-31.52 457.20-31.20L457.20-31.20L474.08-27.76L474.08-27.76Q476.48-27.28 478.04-25.68L478.04-25.68L478.04-25.68Q479.60-24.08 479.60-19.92L479.60-19.92L479.60-15.28L479.60-15.28Q479.60-11.76 477.20-9.48L477.20-9.48L477.20-9.48Q474.80-7.20 470.72-7.20L470.72-7.20L450.80-7.20L450.80-8L470.72-8L470.72-8Q474.40-8 476.60-10.04L476.60-10.04L476.60-10.04Q478.80-12.08 478.80-15.28L478.80-15.28L478.80-19.92L478.80-19.92Q478.80-23.68 477.48-25.08L477.48-25.08L477.48-25.08Q476.16-26.48 473.92-26.96L473.92-26.96L457.04-30.40L457.04-30.40Q454.96-30.80 453.64-32.04L453.64-32.04L453.64-32.04Q452.32-33.28 452.32-36.56L452.32-36.56L452.32-43.12L452.32-43.12Q452.32-46.32 454.56-48.36L454.56-48.36L454.56-48.36Q456.80-50.40 460.48-50.40L460.48-50.40" fill="#109ad7" stroke="none" stroke-width="none" transform="translate(-402.0799808502197,26.379603169759122)" style="fill: rgb(16, 154, 215);"></path></g><g class="path" style="transform: matrix(1, 0, 0, 1, 0, 199); opacity: 0.05; transform-origin: 118.52px 1.9396px; animation: 1s linear 0.385s 1 normal forwards running slide-btt-in-9c33915a-aa92-416b-831e-42502b3938f2;"><path d="M521.92 9.52L521.92 9.52L508.96 9.52L508.96 9.52Q507.04 9.52 506.16 8.64L506.16 8.64L506.16 8.64Q505.28 7.76 505.28 5.84L505.28 5.84L505.28-32.64L494.32-32.64L494.32-32.64Q492.40-32.64 491.52-33.52L491.52-33.52L491.52-33.52Q490.64-34.40 490.64-36.32L490.64-36.32L490.64-46L490.64-46Q490.64-47.04 490.92-47.76L490.92-47.76L490.92-47.76Q491.20-48.48 491.76-48.96L491.76-48.96L502.08-57.68L502.08-57.68Q502.48-58 503.16-58.20L503.16-58.20L503.16-58.20Q503.84-58.40 504.64-58.40L504.64-58.40L546.88-58.40L546.88-58.40Q548.80-58.40 549.68-57.52L549.68-57.52L549.68-57.52Q550.56-56.64 550.56-54.72L550.56-54.72L550.56-45.04L550.56-45.04Q550.56-44 550.28-43.28L550.28-43.28L550.28-43.28Q550-42.56 549.44-42.08L549.44-42.08L539.04-33.44L539.04-33.44Q538.72-33.12 538.04-32.88L538.04-32.88L538.04-32.88Q537.36-32.64 536.56-32.64L536.56-32.64L535.92-32.64L535.92-2.88L535.92-2.88Q535.92-1.84 535.64-1.12L535.64-1.12L535.64-1.12Q535.36-0.40 534.80 0.08L534.80 0.08L524.40 8.72L524.40 8.72Q524.08 9.04 523.40 9.28L523.40 9.28L523.40 9.28Q522.72 9.52 521.92 9.52zM519.28 0L532.24 0L532.24 0Q533.76 0 534.44-0.68L534.44-0.68L534.44-0.68Q535.12-1.36 535.12-2.88L535.12-2.88L535.12-42.16L546.88-42.16L546.88-42.16Q548.40-42.16 549.08-42.84L549.08-42.84L549.08-42.84Q549.76-43.52 549.76-45.04L549.76-45.04L549.76-54.72L549.76-54.72Q549.76-56.24 549.08-56.92L549.08-56.92L549.08-56.92Q548.40-57.60 546.88-57.60L546.88-57.60L504.64-57.60L504.64-57.60Q503.12-57.60 502.44-56.92L502.44-56.92L502.44-56.92Q501.76-56.24 501.76-54.72L501.76-54.72L501.76-45.04L501.76-45.04Q501.76-43.52 502.44-42.84L502.44-42.84L502.44-42.84Q503.12-42.16 504.64-42.16L504.64-42.16L516.40-42.16L516.40-2.88L516.40-2.88Q516.40-1.36 517.08-0.68L517.08-0.68L517.08-0.68Q517.76 0 519.28 0L519.28 0zM526.16-7.20L525.36-7.20L525.36-49.60L508.96-49.60L508.96-50.40L542.56-50.40L542.56-49.60L526.16-49.60L526.16-7.20" fill="#109ad7" stroke="none" stroke-width="none" transform="translate(-402.0799808502197,26.379603169759122)" style="fill: rgb(16, 154, 215);"></path></g><g class="path" style="transform: matrix(1, 0, 0, 1, 0, 199); opacity: 0.05; transform-origin: 182.6px 2.5396px; animation: 1s linear 0.44s 1 normal forwards running slide-btt-in-9c33915a-aa92-416b-831e-42502b3938f2;"><path d="M579.52 10.72L579.52 10.72L579.52 10.72Q571.76 10.72 566.76 9.08L566.76 9.08L566.76 9.08Q561.76 7.44 558.96 4.72L558.96 4.72L558.96 4.72Q556.16 2 555.08-1.52L555.08-1.52L555.08-1.52Q554-5.04 554-8.80L554-8.80L554-46L554-46Q554-47.04 554.28-47.76L554.28-47.76L554.28-47.76Q554.56-48.48 555.12-48.96L555.12-48.96L565.44-57.68L565.44-57.68Q565.84-58 566.52-58.20L566.52-58.20L566.52-58.20Q567.20-58.40 568-58.40L568-58.40L580.56-58.40L580.56-58.40Q582.48-58.40 583.36-57.52L583.36-57.52L583.36-57.52Q584.24-56.64 584.24-54.72L584.24-54.72L584.24-18.24L584.24-18.24Q584.24-17.52 584.48-16.92L584.48-16.92L584.48-16.92Q584.72-16.32 585.52-16L585.52-16L585.52-46L585.52-46Q585.52-47.04 585.76-47.76L585.76-47.76L585.76-47.76Q586-48.48 586.48-48.88L586.48-48.88L586.56-48.96L596.96-57.68L596.96-57.68Q597.36-58 598-58.20L598-58.20L598-58.20Q598.64-58.40 599.52-58.40L599.52-58.40L611.68-58.40L611.68-58.40Q613.60-58.40 614.48-57.52L614.48-57.52L614.48-57.52Q615.36-56.64 615.36-54.72L615.36-54.72L615.36-15.12L615.36-15.12Q615.36-11.44 614.32-8.32L614.32-8.32L614.32-8.32Q613.28-5.20 610.56-2.96L610.56-2.96L600.16 5.68L600.16 5.68Q597.36 8.08 592.40 9.40L592.40 9.40L592.40 9.40Q587.44 10.72 579.52 10.72zM614.56-15.12L614.56-15.12L614.56-54.72L614.56-54.72Q614.56-56.24 613.88-56.92L613.88-56.92L613.88-56.92Q613.20-57.60 611.68-57.60L611.68-57.60L599.52-57.60L599.52-57.60Q598-57.60 597.32-56.92L597.32-56.92L597.32-56.92Q596.64-56.24 596.64-54.72L596.64-54.72L596.64-18.24L596.64-18.24Q596.64-16.64 595.44-15.56L595.44-15.56L595.44-15.56Q594.24-14.48 590-14.48L590-14.48L590-14.48Q585.84-14.48 584.64-15.56L584.64-15.56L584.64-15.56Q583.44-16.64 583.44-18.24L583.44-18.24L583.44-54.72L583.44-54.72Q583.44-56.24 582.76-56.92L582.76-56.92L582.76-56.92Q582.08-57.60 580.56-57.60L580.56-57.60L568-57.60L568-57.60Q566.48-57.60 565.80-56.92L565.80-56.92L565.80-56.92Q565.12-56.24 565.12-54.72L565.12-54.72L565.12-15.12L565.12-15.12Q565.12-11.44 566.20-8.44L566.20-8.44L566.20-8.44Q567.28-5.44 570.04-3.32L570.04-3.32L570.04-3.32Q572.80-1.20 577.60 0L577.60 0L577.60 0Q582.40 1.20 589.84 1.20L589.84 1.20L589.84 1.20Q597.28 1.20 602.08 0L602.08 0L602.08 0Q606.88-1.20 609.64-3.32L609.64-3.32L609.64-3.32Q612.40-5.44 613.48-8.44L613.48-8.44L613.48-8.44Q614.56-11.44 614.56-15.12zM573.92-17.04L573.92-50.40L574.72-50.40L574.72-17.04L574.72-17.04Q574.72-12.56 577.88-9.80L577.88-9.80L577.88-9.80Q581.04-7.04 589.92-7.04L589.92-7.04L589.92-7.04Q598.80-7.04 602-9.80L602-9.80L602-9.80Q605.20-12.56 605.20-17.04L605.20-17.04L605.20-50.40L606-50.40L606-17.04L606-17.04Q606-12.24 602.64-9.24L602.64-9.24L602.64-9.24Q599.28-6.24 589.92-6.24L589.92-6.24L589.92-6.24Q580.56-6.24 577.24-9.24L577.24-9.24L577.24-9.24Q573.92-12.24 573.92-17.04L573.92-17.04" fill="#109ad7" stroke="none" stroke-width="none" transform="translate(-402.0799808502197,26.379603169759122)" style="fill: rgb(16, 154, 215);"></path></g><g class="path" style="transform: matrix(1, 0, 0, 1, 0, 199); opacity: 0.05; transform-origin: 250.72px 1.9396px; animation: 1s linear 0.495s 1 normal forwards running slide-btt-in-9c33915a-aa92-416b-831e-42502b3938f2;"><path d="M678.48-3.36L668.08 5.28L668.08 5.28Q665.60 7.36 661.76 8.44L661.76 8.44L661.76 8.44Q657.92 9.52 652.72 9.52L652.72 9.52L625.76 9.52L625.76 9.52Q623.84 9.52 622.96 8.64L622.96 8.64L622.96 8.64Q622.08 7.76 622.08 5.84L622.08 5.84L622.08-46L622.08-46Q622.08-47.04 622.36-47.76L622.36-47.76L622.36-47.76Q622.64-48.48 623.20-48.96L623.20-48.96L633.52-57.68L633.52-57.68Q633.92-58 634.60-58.20L634.60-58.20L634.60-58.20Q635.28-58.40 636.08-58.40L636.08-58.40L663.04-58.40L663.04-58.40Q673.52-58.40 678.52-54.16L678.52-54.16L678.52-54.16Q683.52-49.92 683.52-41.28L683.52-41.28L683.52-16.32L683.52-16.32Q683.52-12 682.24-8.76L682.24-8.76L682.24-8.76Q680.96-5.52 678.48-3.36L678.48-3.36zM636.08 0L663.04 0L663.04 0Q673.04 0 677.88-4L677.88-4L677.88-4Q682.72-8 682.72-16.32L682.72-16.32L682.72-41.28L682.72-41.28Q682.72-49.60 677.88-53.60L677.88-53.60L677.88-53.60Q673.04-57.60 663.04-57.60L663.04-57.60L636.08-57.60L636.08-57.60Q634.56-57.60 633.88-56.92L633.88-56.92L633.88-56.92Q633.20-56.24 633.20-54.72L633.20-54.72L633.20-2.88L633.20-2.88Q633.20-1.36 633.88-0.68L633.88-0.68L633.88-0.68Q634.56 0 636.08 0L636.08 0zM661.28-7.20L641.92-7.20L641.92-50.40L661.28-50.40L661.28-50.40Q665.36-50.40 667.88-49.52L667.88-49.52L667.88-49.52Q670.40-48.64 671.76-47.16L671.76-47.16L671.76-47.16Q673.12-45.68 673.60-43.64L673.60-43.64L673.60-43.64Q674.08-41.60 674.08-39.28L674.08-39.28L674.08-18.08L674.08-18.08Q674.08-15.76 673.64-13.76L673.64-13.76L673.64-13.76Q673.20-11.76 671.84-10.32L671.84-10.32L671.84-10.32Q670.48-8.88 667.92-8.04L667.92-8.04L667.92-8.04Q665.36-7.20 661.28-7.20L661.28-7.20zM661.28-49.60L661.28-49.60L642.72-49.60L642.72-8L661.28-8L661.28-8Q665.12-8 667.48-8.76L667.48-8.76L667.48-8.76Q669.84-9.52 671.12-10.84L671.12-10.84L671.12-10.84Q672.40-12.16 672.84-14.04L672.84-14.04L672.84-14.04Q673.28-15.92 673.28-18.08L673.28-18.08L673.28-39.28L673.28-39.28Q673.28-41.44 672.80-43.36L672.80-43.36L672.80-43.36Q672.32-45.28 671.04-46.64L671.04-46.64L671.04-46.64Q669.76-48 667.40-48.80L667.40-48.80L667.40-48.80Q665.04-49.60 661.28-49.60zM651.36-15.12L651.36-42.32L660.88-42.32L660.88-42.32Q662.80-42.32 663.72-41.40L663.72-41.40L663.72-41.40Q664.64-40.48 664.64-38.48L664.64-38.48L664.64-19.04L664.64-19.04Q664.64-17.04 663.72-16.08L663.72-16.08L663.72-16.08Q662.80-15.12 660.88-15.12L660.88-15.12L651.36-15.12zM653.52-15.92L653.52-29.76L653.52-29.76Q653.52-30.80 653.20-31.52L653.20-31.52L653.20-31.52Q652.88-32.24 652.16-32.56L652.16-32.56L652.16-15.92L653.52-15.92" fill="#109ad7" stroke="none" stroke-width="none" transform="translate(-402.0799808502197,26.379603169759122)" style="fill: rgb(16, 154, 215);"></path></g><g class="path" style="transform: matrix(1, 0, 0, 1, 0, 199); opacity: 0.05; transform-origin: 312.28px 1.9396px; animation: 1s linear 0.55s 1 normal forwards running slide-btt-in-9c33915a-aa92-416b-831e-42502b3938f2;"><path d="M726.24 9.52L726.24 9.52L692.16 9.52L692.16 9.52Q690.24 9.52 689.36 8.64L689.36 8.64L689.36 8.64Q688.48 7.76 688.48 5.84L688.48 5.84L688.48-3.68L688.48-3.68Q688.48-4.72 688.76-5.44L688.76-5.44L688.76-5.44Q689.04-6.16 689.60-6.64L689.60-6.64L699.28-14.80L699.28-32.64L692.16-32.64L692.16-32.64Q690.24-32.64 689.36-33.52L689.36-33.52L689.36-33.52Q688.48-34.40 688.48-36.32L688.48-36.32L688.48-46L688.48-46Q688.48-47.04 688.76-47.76L688.76-47.76L688.76-47.76Q689.04-48.48 689.60-48.96L689.60-48.96L699.92-57.68L699.92-57.68Q700.32-58 701.00-58.20L701.00-58.20L701.00-58.20Q701.68-58.40 702.48-58.40L702.48-58.40L736.56-58.40L736.56-58.40Q738.48-58.40 739.36-57.52L739.36-57.52L739.36-57.52Q740.24-56.64 740.24-54.72L740.24-54.72L740.24-45.04L740.24-45.04Q740.24-44 739.96-43.28L739.96-43.28L739.96-43.28Q739.68-42.56 739.12-42.08L739.12-42.08L729.60-34.08L729.60-16.08L736.56-16.08L736.56-16.08Q738.48-16.08 739.36-15.20L739.36-15.20L739.36-15.20Q740.24-14.32 740.24-12.40L740.24-12.40L740.24-2.88L740.24-2.88Q740.24-1.84 739.96-1.12L739.96-1.12L739.96-1.12Q739.68-0.40 739.12 0.08L739.12 0.08L728.72 8.72L728.72 8.72Q728.40 9.04 727.72 9.28L727.72 9.28L727.72 9.28Q727.04 9.52 726.24 9.52zM702.48 0L702.48 0L736.56 0L736.56 0Q738.08 0 738.76-0.68L738.76-0.68L738.76-0.68Q739.44-1.36 739.44-2.88L739.44-2.88L739.44-12.40L739.44-12.40Q739.44-13.92 738.76-14.60L738.76-14.60L738.76-14.60Q738.08-15.28 736.56-15.28L736.56-15.28L728.80-15.28L728.80-42.16L736.56-42.16L736.56-42.16Q738.08-42.16 738.76-42.84L738.76-42.84L738.76-42.84Q739.44-43.52 739.44-45.04L739.44-45.04L739.44-54.72L739.44-54.72Q739.44-56.24 738.76-56.92L738.76-56.92L738.76-56.92Q738.08-57.60 736.56-57.60L736.56-57.60L702.48-57.60L702.48-57.60Q700.96-57.60 700.28-56.92L700.28-56.92L700.28-56.92Q699.60-56.24 699.60-54.72L699.60-54.72L699.60-45.04L699.60-45.04Q699.60-43.52 700.28-42.84L700.28-42.84L700.28-42.84Q700.96-42.16 702.48-42.16L702.48-42.16L710.40-42.16L710.40-15.28L702.48-15.28L702.48-15.28Q700.96-15.28 700.28-14.60L700.28-14.60L700.28-14.60Q699.60-13.92 699.60-12.40L699.60-12.40L699.60-2.88L699.60-2.88Q699.60-1.36 700.28-0.68L700.28-0.68L700.28-0.68Q700.96 0 702.48 0zM732.24-8L732.24-7.20L706.80-7.20L706.80-8L719.20-8L719.20-49.60L706.80-49.60L706.80-50.40L732.24-50.40L732.24-49.60L720.00-49.60L720.00-8L732.24-8" fill="#109ad7" stroke="none" stroke-width="none" transform="translate(-402.0799808502197,26.379603169759122)" style="fill: rgb(16, 154, 215);"></path></g><g class="path" style="transform: matrix(1, 0, 0, 1, 0, 199); opacity: 0.05; transform-origin: 374px 1.9396px; animation: 1s linear 0.605s 1 normal forwards running slide-btt-in-9c33915a-aa92-416b-831e-42502b3938f2;"><path d="M802.08-2.96L791.76 5.68L791.76 5.68Q788.96 8.08 783.92 9.40L783.92 9.40L783.92 9.40Q778.88 10.72 770.96 10.72L770.96 10.72L770.96 10.72Q763.12 10.72 758.12 9.08L758.12 9.08L758.12 9.08Q753.12 7.44 750.28 4.72L750.28 4.72L750.28 4.72Q747.44 2 746.36-1.52L746.36-1.52L746.36-1.52Q745.28-5.04 745.28-8.80L745.28-8.80L745.28-33.68L745.28-33.68Q745.28-37.36 746.32-40.52L746.32-40.52L746.32-40.52Q747.36-43.68 750.08-45.92L750.08-45.92L760.48-54.56L760.48-54.56Q763.28-56.96 768.28-58.28L768.28-58.28L768.28-58.28Q773.28-59.60 781.28-59.60L781.28-59.60L781.28-59.60Q789.12-59.60 794.12-58.32L794.12-58.32L794.12-58.32Q799.12-57.04 801.96-54.76L801.96-54.76L801.96-54.76Q804.80-52.48 805.84-49.32L805.84-49.32L805.84-49.32Q806.88-46.16 806.88-42.40L806.88-42.40L806.88-15.12L806.88-15.12Q806.88-11.44 805.84-8.32L805.84-8.32L805.84-8.32Q804.80-5.20 802.08-2.96L802.08-2.96zM806.08-15.12L806.08-15.12L806.08-42.40L806.08-42.40Q806.08-46.08 805.00-49.08L805.00-49.08L805.00-49.08Q803.92-52.08 801.16-54.24L801.16-54.24L801.16-54.24Q798.40-56.40 793.56-57.60L793.56-57.60L793.56-57.60Q788.72-58.80 781.28-58.80L781.28-58.80L781.28-58.80Q773.84-58.80 768.96-57.60L768.96-57.60L768.96-57.60Q764.08-56.40 761.32-54.24L761.32-54.24L761.32-54.24Q758.56-52.08 757.48-49.08L757.48-49.08L757.48-49.08Q756.40-46.08 756.40-42.40L756.40-42.40L756.40-15.12L756.40-15.12Q756.40-11.44 757.48-8.44L757.48-8.44L757.48-8.44Q758.56-5.44 761.32-3.32L761.32-3.32L761.32-3.32Q764.08-1.20 768.96 0L768.96 0L768.96 0Q773.84 1.20 781.28 1.20L781.28 1.20L781.28 1.20Q788.72 1.20 793.56 0L793.56 0L793.56 0Q798.40-1.20 801.16-3.32L801.16-3.32L801.16-3.32Q803.92-5.44 805.00-8.44L805.00-8.44L805.00-8.44Q806.08-11.44 806.08-15.12zM797.36-40.56L797.36-16.96L797.36-16.96Q797.36-12.16 793.92-9.16L793.92-9.16L793.92-9.16Q790.48-6.16 781.12-6.16L781.12-6.16L781.12-6.16Q771.76-6.16 768.40-9.16L768.40-9.16L768.40-9.16Q765.04-12.16 765.04-16.96L765.04-16.96L765.04-40.56L765.04-40.56Q765.04-45.36 768.40-48.36L768.40-48.36L768.40-48.36Q771.76-51.36 781.12-51.36L781.12-51.36L781.12-51.36Q790.48-51.36 793.92-48.36L793.92-48.36L793.92-48.36Q797.36-45.36 797.36-40.56L797.36-40.56zM765.84-40.56L765.84-16.96L765.84-16.96Q765.84-12.48 769.04-9.72L769.04-9.72L769.04-9.72Q772.24-6.96 781.12-6.96L781.12-6.96L781.12-6.96Q790-6.96 793.28-9.72L793.28-9.72L793.28-9.72Q796.56-12.48 796.56-16.96L796.56-16.96L796.56-40.56L796.56-40.56Q796.56-45.04 793.28-47.80L793.28-47.80L793.28-47.80Q790-50.56 781.12-50.56L781.12-50.56L781.12-50.56Q772.24-50.56 769.04-47.80L769.04-47.80L769.04-47.80Q765.84-45.04 765.84-40.56L765.84-40.56zM774.56-18L774.56-18L774.56-39.52L774.56-39.52Q774.56-41.04 775.76-42.12L775.76-42.12L775.76-42.12Q776.96-43.20 781.28-43.20L781.28-43.20L781.28-43.20Q785.60-43.20 786.80-42.12L786.80-42.12L786.80-42.12Q788-41.04 788-39.52L788-39.52L788-18L788-18Q788-16.40 786.80-15.32L786.80-15.32L786.80-15.32Q785.60-14.24 781.28-14.24L781.28-14.24L781.28-14.24Q776.96-14.24 775.76-15.32L775.76-15.32L775.76-15.32Q774.56-16.40 774.56-18zM775.36-33.12L775.36-18L775.36-18Q775.36-17.20 775.68-16.60L775.68-16.60L775.68-16.60Q776-16 776.88-15.60L776.88-15.60L776.88-30.80L776.88-30.80Q776.88-31.60 776.56-32.20L776.56-32.20L776.56-32.20Q776.24-32.80 775.36-33.12L775.36-33.12" fill="#109ad7" stroke="none" stroke-width="none" transform="translate(-402.0799808502197,26.379603169759122)" style="fill: rgb(16, 154, 215);">
</path></g>
</g>
</g>
</g>
</svg>